{"glyphs":{"0":{"ha":611,"x_min":42,"x_max":569,"o":"m 306 986 q 408 969 360 986 q 492 922 457 953 q 549 848 528 892 q 569 750 569 804 l 569 222 q 549 124 569 168 q 492 50 528 81 q 408 3 457 19 q 306 -14 360 -14 q 203 3 251 -14 q 119 50 154 19 q 63 124 83 81 q 42 222 42 168 l 42 750 q 63 848 42 804 q 119 922 83 892 q 203 969 154 953 q 306 986 251 986 m 361 903 q 345 942 361 926 q 306 958 329 958 q 266 942 282 958 q 250 903 250 926 l 250 69 q 266 30 250 46 q 306 14 282 14 q 345 30 329 14 q 361 69 361 46 l 361 903 z "},"1":{"ha":361,"x_min":42,"x_max":319,"o":"m 56 14 q 69 36 64 19 q 79 78 75 51 q 83 153 83 106 l 83 750 q 77 824 83 797 q 63 867 71 851 q 42 889 53 883 l 42 903 l 278 972 l 292 972 l 292 153 q 296 78 292 106 q 306 36 300 51 q 319 14 311 19 l 319 0 l 56 0 l 56 14 z "},"2":{"ha":639,"x_min":8,"x_max":596,"o":"m 8 0 l 8 28 q 189 274 110 138 q 255 402 222 332 q 313 551 288 472 q 354 719 339 631 q 369 903 369 807 q 353 942 369 926 q 314 958 338 958 q 274 942 290 958 q 258 903 258 926 l 258 758 q 228 684 258 714 q 154 654 199 654 q 81 684 111 654 q 50 758 51 714 q 71 853 50 811 q 128 925 92 896 q 212 970 164 954 q 314 986 260 986 q 417 969 368 986 q 501 922 465 953 q 557 848 536 892 q 578 750 578 804 q 541 610 578 686 q 448 455 504 533 q 324 302 392 376 q 194 167 257 228 l 443 167 q 517 175 490 167 q 560 194 544 183 q 582 222 576 207 l 596 222 l 554 0 l 8 0 z "},"3":{"ha":640,"x_min":42,"x_max":597,"o":"m 319 986 q 423 971 374 986 q 510 925 472 956 q 569 849 547 894 q 590 744 590 804 q 578 667 590 704 q 542 599 565 629 q 488 546 519 568 q 419 511 457 524 q 491 472 458 497 q 547 414 524 447 q 584 341 571 381 q 597 257 597 301 q 575 151 597 201 q 515 65 553 101 q 426 8 476 29 q 319 -14 376 -14 q 213 8 264 -14 q 124 65 163 29 q 64 151 86 101 q 42 257 42 201 q 72 331 42 301 q 146 361 101 361 q 219 331 189 361 q 250 257 250 301 l 250 83 q 270 34 250 54 q 319 14 290 14 q 369 34 349 14 q 389 83 389 54 l 389 431 q 369 480 389 460 q 319 500 349 500 l 292 500 l 236 500 l 236 528 l 292 528 l 324 528 q 365 548 347 531 q 382 590 382 565 l 382 896 q 364 940 382 922 q 319 958 346 958 q 275 940 293 958 q 257 894 257 921 l 257 743 q 227 669 257 699 q 153 639 197 639 q 79 669 110 639 q 49 743 49 699 q 72 849 49 803 q 134 925 96 894 q 221 971 172 956 q 319 986 269 986 z "},"4":{"ha":639,"x_min":28,"x_max":611,"o":"m 28 192 q 139 311 90 228 q 192 431 167 358 q 234 606 218 503 q 250 847 250 710 q 290 946 250 906 q 389 986 331 986 q 488 946 447 986 q 528 847 528 906 q 508 683 528 758 q 454 546 488 608 q 378 433 421 483 q 292 343 336 382 q 56 192 188 250 l 361 192 l 361 389 l 569 458 l 569 192 l 611 192 l 611 164 l 569 164 l 569 153 q 574 78 569 106 q 583 36 578 51 q 597 14 589 19 l 597 0 l 333 0 l 333 14 q 347 36 342 19 q 357 78 353 51 q 361 153 361 106 l 361 164 l 28 164 l 28 192 z "},"5":{"ha":599,"x_min":29,"x_max":571,"o":"m 29 229 q 60 303 29 274 q 133 333 90 333 q 208 303 178 333 q 238 229 238 274 l 238 76 q 256 32 238 50 q 300 14 274 14 q 344 32 326 14 q 363 76 363 50 l 363 422 q 351 479 363 453 q 320 526 340 506 q 274 557 300 546 q 217 568 247 568 q 160 557 186 568 q 114 526 133 546 q 83 479 94 506 q 71 422 71 453 l 71 396 l 42 396 l 99 972 l 492 972 l 533 736 l 519 736 q 497 764 514 751 q 455 783 482 775 q 381 792 428 792 l 106 792 l 79 529 q 172 638 110 596 q 314 679 235 679 q 414 659 367 679 q 496 604 461 639 q 551 522 531 569 q 571 422 571 475 l 571 229 q 549 128 571 174 q 492 51 528 83 q 406 3 456 19 q 300 -14 357 -14 q 194 3 244 -14 q 108 51 144 19 q 51 128 72 83 q 29 229 29 174 z "},"6":{"ha":625,"x_min":42,"x_max":583,"o":"m 313 14 q 357 32 339 14 q 375 76 375 50 l 375 381 q 357 425 375 407 q 313 443 339 443 q 268 425 286 443 q 250 381 250 407 l 250 76 q 268 32 250 50 q 313 14 286 14 m 313 -14 q 207 3 257 -14 q 121 51 157 19 q 63 128 85 83 q 42 229 42 174 l 42 750 q 63 848 42 804 q 119 922 83 892 q 203 969 154 953 q 306 986 251 986 q 408 969 360 986 q 492 922 457 953 q 549 848 528 892 q 569 750 569 804 q 539 676 569 706 q 465 646 508 646 q 391 676 421 646 q 361 750 361 706 l 361 903 q 345 942 361 926 q 306 958 329 958 q 266 942 282 958 q 250 903 250 926 l 250 449 q 313 525 269 496 q 410 554 356 554 q 477 540 446 554 q 532 503 508 526 q 569 448 556 479 q 583 381 583 417 l 583 229 q 562 128 583 174 q 504 51 540 83 q 419 3 468 19 q 313 -14 369 -14 z "},"7":{"ha":569,"x_min":14,"x_max":556,"o":"m 556 972 q 440 726 490 861 q 397 599 418 668 q 360 451 376 529 q 333 285 343 372 q 324 104 324 199 q 289 21 324 56 q 206 -14 254 -14 q 122 21 157 -14 q 88 104 88 56 q 119 267 88 178 q 197 449 150 357 q 301 631 244 542 q 407 792 357 719 l 167 792 q 92 783 119 792 q 50 764 65 775 q 28 736 33 751 l 14 736 l 56 972 l 556 972 z "},"8":{"ha":640,"x_min":42,"x_max":597,"o":"m 597 257 q 575 151 597 201 q 515 65 553 101 q 426 8 476 29 q 319 -14 376 -14 q 213 8 264 -14 q 124 65 163 29 q 64 151 86 101 q 42 257 42 201 q 55 341 42 301 q 92 414 68 381 q 148 472 115 447 q 219 511 181 497 q 151 546 182 524 q 97 599 119 568 q 61 667 74 629 q 49 744 49 704 q 70 849 49 804 q 129 925 92 894 q 216 971 167 956 q 319 986 265 986 q 423 971 374 986 q 510 925 472 956 q 569 849 547 894 q 590 744 590 804 q 578 667 590 704 q 542 599 565 629 q 488 546 519 568 q 419 511 457 524 q 491 472 458 497 q 547 414 524 447 q 584 341 571 381 q 597 257 597 301 m 257 590 q 274 548 257 565 q 315 528 292 531 l 324 528 q 365 548 347 531 q 382 590 382 565 l 382 896 q 364 940 382 922 q 319 958 346 958 q 275 940 293 958 q 257 896 257 922 l 257 590 m 250 83 q 270 34 250 54 q 319 14 290 14 q 369 34 349 14 q 389 83 389 54 l 389 431 q 369 480 389 460 q 319 500 349 500 q 270 480 290 500 q 250 431 250 460 l 250 83 z "},"9":{"ha":625,"x_min":42,"x_max":583,"o":"m 313 986 q 419 969 369 986 q 504 921 468 953 q 562 844 540 889 q 583 743 583 800 l 583 222 q 563 124 583 168 q 506 50 542 81 q 422 3 471 19 q 319 -14 374 -14 q 217 3 265 -14 q 133 50 168 19 q 76 124 97 81 q 56 222 56 168 q 86 297 56 267 q 160 326 117 326 q 234 297 204 326 q 264 222 264 267 l 264 69 q 280 30 264 46 q 319 14 296 14 q 359 30 343 14 q 375 69 375 46 l 375 482 q 313 406 356 435 q 215 376 269 376 q 148 390 179 376 q 93 428 117 404 q 56 483 69 451 q 42 550 42 514 l 42 743 q 63 844 42 800 q 121 921 85 889 q 207 969 157 953 q 313 986 257 986 m 250 550 q 268 506 250 524 q 313 488 286 488 q 357 506 339 488 q 375 550 375 524 l 375 896 q 357 940 375 922 q 313 958 339 958 q 268 940 286 958 q 250 896 250 922 l 250 550 z "},"\u0000":{"ha":0,"x_min":0,"x_max":0,"o":""},"\r":{"ha":347,"x_min":0,"x_max":0,"o":""}," ":{"ha":250,"x_min":0,"x_max":0,"o":""},"A":{"ha":622,"x_min":7,"x_max":615,"o":"m 563 153 q 580 78 571 106 q 597 36 589 51 q 615 14 606 19 l 615 0 l 338 0 l 338 14 q 354 36 347 19 q 361 78 360 51 q 354 153 363 106 l 342 226 l 142 226 l 129 153 q 124 78 122 106 q 129 36 125 51 q 146 14 136 19 l 146 0 l 7 0 l 7 14 q 25 36 17 19 q 43 78 33 51 q 60 153 53 106 l 178 819 q 187 894 186 867 q 185 936 188 921 q 175 958 182 953 l 175 972 l 418 972 l 563 153 m 333 268 l 242 792 l 150 268 l 333 268 z "},"B":{"ha":625,"x_min":42,"x_max":597,"o":"m 42 0 l 42 14 q 56 36 50 19 q 65 78 61 51 q 69 153 69 106 l 69 819 q 65 894 69 867 q 56 936 61 921 q 42 958 50 953 l 42 972 l 306 972 q 413 955 363 972 q 501 905 464 938 q 561 826 539 872 q 583 722 583 779 q 535 574 583 635 q 408 489 486 514 q 544 403 492 465 q 597 250 597 342 q 576 147 597 193 q 517 67 554 100 q 428 17 479 35 q 321 0 378 0 l 42 0 m 278 944 l 278 500 l 306 500 q 355 520 335 500 q 375 569 375 540 l 375 875 q 355 924 375 904 q 306 944 335 944 l 278 944 m 278 472 l 278 28 l 319 28 q 369 48 349 28 q 389 97 389 68 l 389 403 q 369 452 389 432 q 319 472 349 472 l 278 472 z "},"C":{"ha":597,"x_min":35,"x_max":563,"o":"m 549 917 l 521 542 l 493 542 q 476 701 493 625 q 430 833 458 776 q 367 924 401 890 q 299 958 332 958 q 259 942 275 958 q 243 903 243 926 l 243 299 q 255 242 243 269 q 286 196 267 215 q 333 165 306 176 q 389 153 360 153 q 446 165 419 153 q 492 196 472 176 q 524 242 513 215 q 535 299 535 268 l 563 292 l 563 250 q 542 148 563 196 q 485 64 521 100 q 401 7 449 28 q 299 -14 353 -14 q 196 7 244 -14 q 112 63 147 28 q 56 147 76 99 q 35 250 35 196 l 35 750 q 56 848 35 804 q 112 922 76 892 q 196 969 147 953 q 299 986 244 986 q 397 976 351 986 q 476 951 442 965 q 549 917 515 936 z "},"D":{"ha":618,"x_min":42,"x_max":583,"o":"m 583 250 q 561 147 583 193 q 501 67 539 100 q 413 17 464 35 q 306 0 363 0 l 42 0 l 42 14 q 56 36 50 19 q 65 78 61 51 q 69 153 69 106 l 69 819 q 65 894 69 867 q 56 936 61 921 q 42 958 50 953 l 42 972 l 306 972 q 413 955 363 972 q 501 905 464 938 q 561 826 539 872 q 583 722 583 779 l 583 250 m 306 28 q 355 48 335 28 q 375 97 375 68 l 375 875 q 355 924 375 904 q 306 944 335 944 l 278 944 l 278 28 l 306 28 z "},"E":{"ha":597,"x_min":42,"x_max":569,"o":"m 278 944 l 278 556 l 385 556 q 427 560 411 556 q 453 569 443 564 q 468 583 463 575 l 482 583 l 440 319 l 413 319 q 417 424 422 378 q 408 462 414 443 q 390 495 401 481 q 361 519 379 510 q 317 528 343 528 l 278 528 l 278 28 l 361 28 q 436 67 403 28 q 493 163 469 106 q 529 286 517 221 q 542 403 542 351 l 569 403 l 542 0 l 42 0 l 42 14 q 56 36 50 19 q 65 78 61 51 q 69 153 69 106 l 69 819 q 65 894 69 867 q 56 936 61 921 q 42 958 50 953 l 42 972 l 528 972 l 542 625 l 514 625 q 501 734 514 678 q 465 837 489 790 q 408 914 442 883 q 333 944 375 944 l 278 944 z "},"F":{"ha":569,"x_min":42,"x_max":542,"o":"m 278 944 l 278 486 l 399 486 q 441 490 425 486 q 467 500 457 494 q 482 514 476 506 l 496 514 l 454 250 l 426 250 q 432 354 436 308 q 426 392 431 374 q 410 426 421 411 q 384 449 400 440 q 344 458 368 458 l 278 458 l 278 153 q 282 78 278 106 q 292 36 286 51 q 306 14 297 19 l 306 0 l 42 0 l 42 14 q 56 36 50 19 q 65 78 61 51 q 69 153 69 106 l 69 819 q 65 894 69 867 q 56 936 61 921 q 42 958 50 953 l 42 972 l 528 972 l 542 625 l 514 625 q 501 734 514 678 q 465 837 489 790 q 408 914 442 883 q 333 944 375 944 l 278 944 z "},"G":{"ha":625,"x_min":35,"x_max":590,"o":"m 563 464 l 590 464 l 590 450 q 576 428 582 444 q 567 385 571 413 q 563 311 563 358 l 563 153 q 567 78 563 106 q 576 36 571 51 q 590 14 582 19 l 590 0 l 354 0 l 354 86 q 294 14 335 42 q 201 -14 253 -14 q 137 -1 167 -14 q 84 35 107 13 q 48 88 61 58 q 35 153 35 118 l 35 750 q 56 848 35 804 q 112 922 76 892 q 196 969 147 953 q 299 986 244 986 q 397 976 351 986 q 476 951 442 965 q 549 917 515 936 l 521 569 l 493 569 q 479 724 493 653 q 442 848 465 796 q 385 929 418 900 q 313 958 351 958 q 261 942 279 958 q 243 903 243 926 l 243 139 q 259 99 243 115 q 299 83 275 83 q 338 99 322 83 q 354 139 354 115 l 354 436 l 299 436 l 299 464 l 563 464 l 563 464 z "},"H":{"ha":667,"x_min":42,"x_max":625,"o":"m 42 14 q 56 36 50 19 q 65 78 61 51 q 69 153 69 106 l 69 819 q 65 894 69 867 q 56 936 61 921 q 42 958 50 953 l 42 972 l 306 972 l 306 958 q 292 936 297 953 q 282 894 286 921 q 278 819 278 867 l 278 500 l 389 500 l 389 819 q 385 894 389 867 q 375 936 381 921 q 361 958 369 953 l 361 972 l 625 972 l 625 958 q 611 936 617 953 q 601 894 606 921 q 597 819 597 867 l 597 153 q 601 78 597 106 q 611 36 606 51 q 625 14 617 19 l 625 0 l 361 0 l 361 14 q 375 36 369 19 q 385 78 381 51 q 389 153 389 106 l 389 458 l 278 458 l 278 153 q 282 78 278 106 q 292 36 286 51 q 306 14 297 19 l 306 0 l 42 0 l 42 14 z "},"I":{"ha":347,"x_min":42,"x_max":306,"o":"m 42 14 q 56 36 50 19 q 65 78 61 51 q 69 153 69 106 l 69 819 q 65 894 69 867 q 56 936 61 921 q 42 958 50 953 l 42 972 l 306 972 l 306 958 q 292 936 297 953 q 282 894 286 921 q 278 819 278 867 l 278 153 q 282 78 278 106 q 292 36 286 51 q 306 14 297 19 l 306 0 l 42 0 l 42 14 z "},"J":{"ha":597,"x_min":7,"x_max":563,"o":"m 7 214 q 38 288 7 258 q 111 318 68 318 q 185 288 156 318 q 215 214 215 258 l 215 56 q 231 16 215 32 q 271 0 247 0 q 310 16 294 0 q 326 56 326 32 l 326 889 q 322 929 326 915 q 313 950 318 943 q 299 958 307 957 l 299 972 l 563 972 l 563 958 q 549 950 554 957 q 539 929 543 943 q 535 889 535 915 l 535 222 q 514 124 535 168 q 458 50 493 81 q 374 3 422 19 q 271 -14 325 -14 q 169 2 217 -14 q 85 47 121 18 q 28 119 49 76 q 7 214 7 161 z "},"K":{"ha":676,"x_min":42,"x_max":675,"o":"m 306 958 q 292 936 297 953 q 282 894 286 921 q 278 819 278 867 l 278 560 l 439 819 q 463 885 463 858 q 453 926 463 911 q 419 958 442 946 l 419 972 l 593 972 l 458 744 l 607 153 q 633 74 621 101 q 654 32 644 46 q 675 14 665 17 l 675 0 l 383 0 l 383 14 q 401 38 396 19 q 409 80 408 53 q 399 153 410 107 l 318 508 l 278 439 l 278 153 q 282 78 278 106 q 292 36 286 51 q 306 14 297 19 l 306 0 l 42 0 l 42 14 q 56 36 50 19 q 65 78 61 51 q 69 153 69 106 l 69 819 q 65 894 69 867 q 56 936 61 921 q 42 958 50 953 l 42 972 l 306 972 l 306 958 z "},"L":{"ha":535,"x_min":42,"x_max":528,"o":"m 306 28 q 383 65 347 28 q 444 155 418 101 q 485 268 471 208 q 500 375 500 328 l 528 375 l 486 0 l 42 0 l 42 14 q 56 36 50 19 q 65 78 61 51 q 69 153 69 106 l 69 819 q 65 894 69 867 q 56 936 61 921 q 42 958 50 953 l 42 972 l 306 972 l 306 958 q 292 936 297 953 q 282 894 286 921 q 278 819 278 867 l 278 28 l 306 28 z "},"M":{"ha":847,"x_min":42,"x_max":806,"o":"m 806 972 l 806 958 q 792 936 797 953 q 782 894 786 921 q 778 819 778 867 l 778 153 q 782 78 778 106 q 792 36 786 51 q 806 14 797 19 l 806 0 l 542 0 l 542 14 q 556 36 550 19 q 565 78 561 51 q 569 153 569 106 l 569 701 l 458 269 l 389 0 l 319 0 l 139 703 l 139 153 q 143 78 139 106 q 153 36 147 51 q 167 14 158 19 l 167 0 l 42 0 l 42 14 q 56 36 50 19 q 65 78 61 51 q 69 153 69 106 l 69 819 q 65 894 69 867 q 56 936 61 921 q 42 958 50 953 l 42 972 l 278 972 l 424 404 l 569 972 l 806 972 z "},"N":{"ha":625,"x_min":42,"x_max":583,"o":"m 486 456 l 486 819 q 482 894 486 867 q 472 936 478 921 q 458 958 467 953 l 458 972 l 583 972 l 583 958 q 569 936 575 953 q 560 894 564 921 q 556 819 556 867 l 556 0 l 450 0 l 139 794 l 139 139 q 143 67 139 92 q 153 29 147 42 q 167 14 158 15 l 167 0 l 42 0 l 42 14 q 56 29 50 15 q 65 67 61 42 q 69 139 69 92 l 69 819 q 65 894 69 867 q 56 936 61 921 q 42 958 50 953 l 42 972 l 278 972 l 486 456 z "},"O":{"ha":611,"x_min":35,"x_max":576,"o":"m 306 986 q 412 969 363 986 q 497 921 461 953 q 555 844 533 889 q 576 743 576 800 l 576 229 q 555 128 576 174 q 497 51 533 83 q 412 3 461 19 q 306 -14 363 -14 q 200 3 250 -14 q 114 51 150 19 q 56 128 78 83 q 35 229 35 174 l 35 743 q 56 844 35 800 q 114 921 78 889 q 200 969 150 953 q 306 986 250 986 m 368 896 q 350 940 368 922 q 306 958 332 958 q 261 940 279 958 q 243 896 243 922 l 243 76 q 261 32 243 50 q 306 14 279 14 q 350 33 332 14 q 368 76 368 51 l 368 896 z "},"P":{"ha":611,"x_min":42,"x_max":583,"o":"m 69 819 q 65 900 69 872 q 56 942 61 928 q 42 958 50 957 l 42 972 l 306 972 q 413 955 363 972 q 501 905 464 938 q 561 826 539 872 q 583 722 583 779 l 583 378 q 571 315 583 344 q 537 265 558 286 q 486 231 515 243 q 424 218 457 218 q 336 244 375 218 q 278 313 297 271 l 278 153 q 282 72 278 100 q 292 32 286 44 q 306 14 297 17 l 306 0 l 42 0 l 42 14 q 56 32 50 17 q 65 72 61 44 q 69 153 69 100 l 69 819 m 375 875 q 355 924 375 904 q 306 944 335 944 l 278 944 l 278 364 q 292 329 278 343 q 326 315 307 315 q 360 329 346 315 q 375 364 375 343 l 375 875 z "},"Q":{"ha":611,"x_min":35,"x_max":576,"o":"m 306 986 q 412 969 363 986 q 497 921 461 953 q 555 844 533 889 q 576 743 576 800 l 576 229 q 561 142 576 182 q 518 72 546 101 q 453 21 490 42 q 371 -8 415 0 l 419 -92 l 396 -106 l 340 -12 q 324 -14 332 -14 q 306 -14 315 -14 q 200 3 250 -14 q 114 51 150 19 q 56 128 78 83 q 35 229 35 174 l 35 743 q 56 844 35 800 q 114 921 78 889 q 200 969 150 953 q 306 986 250 986 m 368 896 q 350 940 368 922 q 306 958 332 958 q 261 940 279 958 q 243 896 243 922 l 243 76 q 261 32 243 50 q 306 14 279 14 q 324 17 313 14 l 292 75 l 315 89 l 349 31 q 363 51 357 40 q 368 76 368 63 l 368 896 z "},"R":{"ha":653,"x_min":42,"x_max":625,"o":"m 278 944 l 278 500 l 326 500 q 376 520 356 500 q 396 569 396 540 l 396 875 q 376 924 396 904 q 326 944 356 944 l 278 944 m 69 819 q 65 894 69 867 q 56 936 61 921 q 42 958 50 953 l 42 972 l 326 972 q 434 955 383 972 q 522 905 485 938 q 582 826 560 872 q 604 722 604 779 q 588 631 604 672 q 542 558 571 590 q 472 506 513 526 q 385 478 432 486 q 502 406 457 458 q 556 271 547 353 l 569 139 q 576 124 571 131 q 590 118 582 118 q 605 124 599 118 q 611 139 611 131 l 625 132 l 625 118 q 615 67 625 92 q 586 25 604 43 q 544 -3 568 7 q 493 -14 521 -14 q 443 -3 467 -14 q 401 25 419 7 q 373 67 383 43 q 361 118 363 92 l 347 438 q 337 463 346 453 q 313 472 328 472 l 278 472 l 278 153 q 282 72 278 100 q 292 32 286 44 q 306 14 297 17 l 306 0 l 42 0 l 42 14 q 56 32 50 17 q 65 72 61 44 q 69 153 69 100 l 69 819 z "},"S":{"ha":599,"x_min":28,"x_max":569,"o":"m 542 917 l 528 611 l 500 611 q 482 742 500 679 q 435 852 464 804 q 368 929 406 900 q 292 958 331 958 q 252 944 268 958 q 236 907 236 931 q 261 819 236 869 q 323 713 286 769 q 403 594 360 656 q 483 469 446 532 q 544 346 519 407 q 569 229 569 285 q 548 128 569 174 q 490 51 526 83 q 405 3 454 19 q 299 -14 356 -14 q 193 3 243 -14 q 107 51 143 19 q 49 128 71 83 q 28 229 28 174 q 58 303 28 272 q 132 333 89 333 q 206 303 175 333 q 236 229 236 272 l 236 76 q 254 32 236 50 q 299 14 272 14 q 343 33 325 14 q 361 76 361 51 q 336 187 361 129 q 274 304 311 244 q 194 425 238 364 q 115 545 151 486 q 53 660 78 604 q 28 764 28 715 q 49 866 28 824 q 105 935 69 908 q 189 974 140 961 q 292 986 238 986 q 390 976 344 986 q 469 951 435 965 q 542 917 508 936 z "},"T":{"ha":639,"x_min":7,"x_max":632,"o":"m 451 0 l 188 0 l 188 14 q 201 36 196 19 q 211 78 207 51 q 215 153 215 106 l 215 943 q 143 912 176 939 q 86 845 110 885 q 49 758 63 806 q 35 667 35 711 l 7 667 l 35 972 l 604 972 l 632 667 l 604 667 q 590 755 604 710 q 551 839 575 800 q 494 906 526 878 q 424 942 461 933 l 424 153 q 428 78 424 106 q 438 36 432 51 q 451 14 443 19 l 451 0 z "},"U":{"ha":667,"x_min":35,"x_max":632,"o":"m 271 257 q 306 153 271 196 q 403 111 342 111 q 499 153 464 111 q 535 257 535 196 l 535 819 q 531 894 535 867 q 521 936 526 921 q 507 958 515 953 l 507 972 l 632 972 l 632 958 q 618 936 624 953 q 608 894 613 921 q 604 819 604 867 l 604 257 q 583 151 604 201 q 525 65 561 101 q 440 8 489 29 q 333 -14 390 -14 q 228 8 278 -14 q 142 65 178 29 q 84 151 106 101 q 63 257 63 201 l 63 819 q 58 894 63 867 q 49 936 54 921 q 35 958 43 953 l 35 972 l 299 972 l 299 958 q 285 936 290 953 q 275 894 279 921 q 271 819 271 867 l 271 257 z "},"V":{"ha":636,"x_min":14,"x_max":622,"o":"m 67 819 q 49 894 58 867 q 32 936 40 921 q 14 958 22 953 l 14 972 l 292 972 l 292 958 q 275 936 281 953 q 268 894 269 921 q 275 819 267 867 l 388 181 l 500 819 q 507 894 508 867 q 500 936 506 921 q 483 958 494 953 l 483 972 l 622 972 l 622 958 q 604 936 614 953 q 588 894 597 921 q 569 819 578 867 l 425 0 l 211 0 l 67 819 z "},"W":{"ha":932,"x_min":14,"x_max":918,"o":"m 765 972 l 918 972 l 918 958 q 899 936 908 953 q 882 894 890 921 q 867 819 874 867 l 761 0 l 553 0 l 469 478 l 392 0 l 183 0 l 67 819 q 51 894 60 867 q 33 936 42 921 q 14 958 24 953 l 14 972 l 306 972 l 306 958 q 283 936 292 953 q 272 894 276 921 q 275 819 268 867 l 360 229 l 479 972 l 590 972 l 721 228 l 797 819 q 799 894 804 867 q 788 936 794 921 q 765 958 779 953 l 765 972 z "},"X":{"ha":626,"x_min":14,"x_max":611,"o":"m 597 972 l 597 958 q 575 936 586 953 q 551 894 564 921 q 522 819 538 867 l 422 490 l 536 153 q 569 69 556 97 q 593 28 583 40 q 611 14 604 14 l 611 0 l 319 0 l 319 14 q 336 46 331 26 q 342 90 342 64 q 328 153 342 117 l 239 417 l 158 153 q 143 78 143 106 q 149 36 143 51 q 167 14 154 19 l 167 0 l 14 0 l 14 14 q 38 36 25 19 q 61 78 49 51 q 89 153 74 106 l 203 525 l 103 819 q 69 905 83 876 q 46 944 56 933 q 28 958 35 958 l 28 972 l 319 972 l 319 958 q 303 926 308 946 q 298 883 297 910 q 311 819 299 857 l 386 599 l 453 819 q 469 894 468 867 q 464 936 469 921 q 444 958 457 953 l 444 972 l 597 972 z "},"Y":{"ha":622,"x_min":14,"x_max":608,"o":"m 608 972 l 608 958 q 586 943 597 957 q 565 907 576 932 q 540 833 553 882 l 415 333 l 415 139 q 419 67 415 92 q 429 29 424 42 q 443 14 435 15 l 443 0 l 179 0 l 179 14 q 193 29 188 15 q 203 67 199 42 q 207 139 207 92 l 207 333 l 82 833 q 58 907 71 882 q 36 943 46 932 q 14 958 25 957 l 14 972 l 292 972 l 292 958 q 281 939 283 954 q 278 901 278 926 q 290 833 279 876 l 381 472 l 471 833 q 483 907 483 882 q 475 943 482 932 q 456 958 468 957 l 456 972 l 608 972 z "},"Z":{"ha":569,"x_min":14,"x_max":556,"o":"m 272 28 l 328 28 q 403 63 369 28 q 460 153 436 99 q 496 274 483 207 q 508 403 508 340 l 536 403 l 522 0 l 14 0 l 14 14 q 28 22 21 15 q 42 43 35 29 q 56 83 49 57 l 297 944 l 257 944 q 182 909 215 944 q 125 819 149 874 q 89 699 101 765 q 76 569 76 632 l 49 569 l 63 972 l 556 972 l 556 958 q 542 950 549 957 q 528 929 536 943 q 514 889 521 915 l 272 28 z "},".":{"ha":319,"x_min":42,"x_max":278,"o":"m 278 104 q 243 21 278 56 q 160 -14 208 -14 q 76 21 111 -14 q 42 104 42 56 q 76 188 42 153 q 160 222 111 222 q 243 188 208 222 q 278 104 278 153 z "},"a":{"ha":563,"x_min":14,"x_max":556,"o":"m 500 500 l 500 139 q 506 124 500 131 q 521 118 513 118 q 535 124 529 118 q 542 139 542 131 l 556 132 l 556 118 q 545 67 556 92 q 517 25 535 43 q 475 -3 499 7 q 424 -14 451 -14 q 350 9 383 -14 q 301 68 317 32 q 247 9 282 32 q 167 -14 211 -14 q 107 -2 135 -14 q 58 31 79 10 q 26 79 38 51 q 14 139 14 107 l 14 208 q 26 265 14 239 q 57 312 38 292 q 103 343 76 332 q 160 354 129 354 q 239 331 204 354 q 292 271 274 307 l 292 667 q 283 686 292 678 q 264 694 275 694 q 244 686 253 694 q 236 667 236 678 l 236 500 q 206 426 236 457 q 132 396 175 396 q 58 426 89 396 q 28 500 28 457 q 47 588 28 549 q 97 653 65 626 q 172 694 129 681 q 264 708 215 708 q 356 694 313 708 q 431 653 399 681 q 481 588 463 626 q 500 500 500 549 m 222 104 q 232 79 222 89 q 257 69 242 69 q 282 79 272 69 q 292 104 292 89 l 292 236 q 282 261 292 251 q 257 271 272 271 q 232 261 242 271 q 222 236 222 251 l 222 104 z "},"b":{"ha":563,"x_min":21,"x_max":535,"o":"m 389 708 q 446 697 419 708 q 492 666 472 686 q 524 619 513 646 q 535 563 535 593 l 535 132 q 524 75 535 101 q 492 29 513 49 q 446 -2 472 10 q 389 -14 419 -14 q 310 10 344 -14 q 257 69 275 33 l 257 0 l 21 0 l 21 14 q 35 36 29 19 q 44 78 40 51 q 49 153 49 106 l 49 819 q 44 894 49 867 q 35 936 40 921 q 21 958 29 953 l 21 972 l 257 1000 l 257 625 q 310 685 275 661 q 389 708 344 708 m 292 69 q 317 79 307 69 q 326 104 326 89 l 326 590 q 317 615 326 606 q 292 625 307 625 q 267 615 276 625 q 257 590 257 606 l 257 104 q 267 79 257 89 q 292 69 276 69 z "},"c":{"ha":528,"x_min":28,"x_max":514,"o":"m 514 236 l 514 229 q 495 135 514 179 q 443 57 476 90 q 365 5 410 24 q 271 -14 321 -14 q 176 5 221 -14 q 99 57 132 24 q 47 135 65 90 q 28 229 28 179 l 28 500 q 47 588 28 549 q 97 653 65 626 q 172 694 129 681 q 264 708 215 708 q 356 694 313 708 q 431 653 399 681 q 481 588 463 626 q 500 500 500 549 q 469 426 500 457 q 396 396 439 396 q 322 426 353 396 q 292 500 292 457 l 292 667 q 283 686 292 678 q 264 694 275 694 q 244 686 253 694 q 236 667 236 678 l 236 250 q 272 161 236 197 q 361 125 308 125 q 450 161 414 125 q 486 250 486 197 l 514 236 z "},"d":{"ha":576,"x_min":28,"x_max":569,"o":"m 174 708 q 253 685 218 708 q 306 625 288 661 l 306 819 q 301 894 306 867 q 292 936 297 921 q 278 958 286 953 l 278 972 l 514 1000 l 514 139 q 520 124 514 131 q 535 118 526 118 q 549 124 543 118 q 556 139 556 131 l 569 132 l 569 118 q 559 67 569 92 q 531 25 549 43 q 489 -3 513 7 q 438 -14 465 -14 q 364 9 397 -14 q 315 68 331 32 q 260 9 296 32 q 181 -14 225 -14 q 121 -2 149 -14 q 72 31 93 10 q 40 79 51 51 q 28 139 28 107 l 28 563 q 40 619 28 593 q 71 666 51 646 q 117 697 90 686 q 174 708 143 708 m 306 590 q 296 615 306 606 q 271 625 286 625 q 246 615 256 625 q 236 590 236 606 l 236 104 q 246 79 236 89 q 271 69 256 69 q 296 79 286 69 q 306 104 306 89 l 306 590 z "},"e":{"ha":542,"x_min":28,"x_max":514,"o":"m 514 236 l 514 229 q 495 135 514 179 q 443 57 476 90 q 365 5 410 24 q 271 -14 321 -14 q 176 5 221 -14 q 99 57 132 24 q 47 135 65 90 q 28 229 28 179 l 28 500 q 47 588 28 549 q 97 653 65 626 q 172 694 129 681 q 264 708 215 708 q 356 694 313 708 q 431 653 399 681 q 481 588 463 626 q 500 500 500 549 l 500 386 q 489 332 500 357 q 459 288 478 307 q 415 258 440 269 q 361 247 390 247 q 287 269 321 247 q 236 325 253 290 l 236 250 q 272 161 236 197 q 361 125 308 125 q 450 161 414 125 q 486 250 486 197 l 514 236 m 236 358 q 244 339 236 347 q 264 331 253 331 q 283 339 275 331 q 292 358 292 347 l 292 667 q 283 686 292 678 q 264 694 275 694 q 244 686 253 694 q 236 667 236 678 l 236 358 z "},"f":{"ha":342,"x_min":7,"x_max":438,"o":"m 285 0 l 49 0 l 49 667 l 7 667 l 7 694 l 49 694 l 49 819 q 64 891 49 860 q 106 943 79 922 q 167 975 132 964 q 243 986 203 986 q 319 976 283 986 q 381 947 354 965 q 422 902 407 928 q 438 847 438 876 q 417 798 438 818 q 368 778 397 778 q 319 798 339 778 q 299 847 299 818 l 299 951 q 292 966 299 960 q 278 972 286 972 q 263 966 269 972 q 257 951 257 960 l 257 694 l 328 694 l 328 667 l 257 667 l 257 153 q 261 78 257 106 q 271 36 265 51 q 285 14 276 19 l 285 0 m 21 14 q 35 36 29 19 q 44 78 40 51 q 49 153 49 106 l 49 0 l 21 0 l 21 14 z "},"g":{"ha":549,"x_min":28,"x_max":542,"o":"m 306 660 q 296 685 306 675 q 271 694 286 694 q 246 685 256 694 q 236 660 236 675 l 236 146 q 246 121 236 131 q 271 111 256 111 q 296 121 286 111 q 306 146 306 131 l 306 660 m 426 903 q 501 873 471 903 q 531 799 531 843 q 500 725 531 756 q 426 694 469 694 l 363 694 q 472 622 429 674 q 514 493 514 569 l 514 313 q 495 222 514 263 q 443 154 476 182 q 365 112 410 126 q 271 97 321 97 l 181 97 q 161 89 169 97 q 153 69 153 81 q 161 50 153 58 q 181 42 169 42 l 410 42 q 461 31 438 42 q 503 3 485 21 q 531 -40 521 -15 q 542 -90 542 -64 q 531 -142 542 -118 q 503 -183 521 -165 q 461 -212 485 -201 q 410 -222 438 -222 l 396 -222 l 389 -208 q 403 -202 397 -208 q 410 -187 410 -196 q 403 -173 410 -179 q 389 -167 397 -167 l 181 -167 q 82 -126 122 -167 q 42 -28 42 -86 q 81 70 42 31 q 179 111 121 110 q 70 183 113 132 q 28 313 28 235 l 28 493 q 47 583 28 543 q 99 651 65 624 q 176 694 132 679 q 271 708 221 708 l 426 708 q 446 717 438 708 q 454 736 454 725 q 446 756 454 747 q 426 764 438 764 q 377 784 397 764 q 357 833 357 804 q 377 883 357 863 q 426 903 397 903 z "},"h":{"ha":597,"x_min":21,"x_max":590,"o":"m 389 708 q 446 697 419 708 q 492 666 472 686 q 524 619 513 646 q 535 563 535 593 l 535 139 q 541 124 535 131 q 556 118 547 118 q 570 124 564 118 q 576 139 576 131 l 590 132 l 590 118 q 580 67 590 92 q 551 25 569 43 q 510 -3 533 7 q 458 -14 486 -14 q 408 -3 432 -14 q 365 25 383 7 q 337 67 347 43 q 326 118 326 92 l 326 590 q 317 615 326 606 q 292 625 307 625 q 267 615 276 625 q 257 590 257 606 l 257 153 q 261 78 257 106 q 271 36 265 51 q 285 14 276 19 l 285 0 l 21 0 l 21 14 q 35 36 29 19 q 44 78 40 51 q 49 153 49 106 l 49 819 q 44 894 49 867 q 35 936 40 921 q 21 958 29 953 l 21 972 l 257 1000 l 257 625 q 310 685 275 661 q 389 708 344 708 z "},"i":{"ha":313,"x_min":14,"x_max":306,"o":"m 243 861 q 210 783 243 815 q 132 750 178 750 q 53 783 86 750 q 21 861 21 815 q 53 940 21 907 q 132 972 86 972 q 210 940 178 972 q 243 861 243 907 m 306 132 l 306 118 q 295 67 306 92 q 267 25 285 43 q 225 -3 249 7 q 174 -14 201 -14 q 123 -3 147 -14 q 81 25 99 7 q 52 67 63 43 q 42 118 42 92 l 42 514 q 38 588 42 561 q 28 631 33 615 q 14 653 22 647 l 14 667 l 250 694 l 250 139 q 256 124 250 131 q 271 118 263 118 q 285 124 279 118 q 292 139 292 131 l 306 132 z "},"j":{"ha":306,"x_min":0,"x_max":285,"o":"m 285 861 q 252 783 285 815 q 174 750 219 750 q 95 783 128 750 q 63 861 63 815 q 95 940 63 907 q 174 972 128 972 q 252 940 219 972 q 285 861 285 907 m 14 -62 q 22 -82 14 -74 q 42 -90 31 -90 q 61 -82 53 -90 q 69 -62 69 -74 l 69 583 q 65 624 69 610 q 56 644 61 638 q 42 653 50 651 l 42 667 l 278 694 l 278 -83 q 238 -182 278 -142 q 139 -222 197 -222 q 85 -212 110 -222 q 41 -183 60 -201 q 11 -138 22 -164 q 0 -83 0 -112 l 0 -69 l 14 -62 z "},"k":{"ha":613,"x_min":21,"x_max":606,"o":"m 21 14 q 35 39 29 19 q 44 84 40 54 q 49 167 49 114 l 49 819 q 44 900 49 872 q 35 942 40 928 q 21 958 29 957 l 21 972 l 257 1000 l 257 315 l 394 542 q 420 607 418 581 q 415 649 422 633 q 389 681 407 668 l 389 694 l 549 694 l 436 501 l 543 139 q 570 62 558 88 q 589 25 582 36 q 606 14 599 13 l 606 0 l 356 0 l 356 14 q 371 32 365 18 q 375 65 375 43 q 364 125 375 88 l 314 293 l 257 194 l 257 153 q 261 72 257 100 q 271 32 265 44 q 285 14 276 17 l 285 0 l 21 0 l 21 14 z "},"l":{"ha":313,"x_min":14,"x_max":306,"o":"m 306 132 l 306 118 q 295 67 306 92 q 267 25 285 43 q 225 -3 249 7 q 174 -14 201 -14 q 123 -3 147 -14 q 81 25 99 7 q 52 67 63 43 q 42 118 42 92 l 42 819 q 38 894 42 867 q 28 936 33 921 q 14 958 22 953 l 14 972 l 250 1000 l 250 139 q 256 124 250 131 q 271 118 263 118 q 285 124 279 118 q 292 139 292 131 l 306 132 z "},"m":{"ha":875,"x_min":21,"x_max":868,"o":"m 389 708 q 469 685 433 708 q 522 622 504 661 q 578 685 542 661 q 660 708 614 708 q 719 697 692 708 q 768 664 747 685 q 801 615 789 643 q 813 556 813 588 l 813 139 q 819 124 813 131 q 833 118 825 118 q 848 124 842 118 q 854 139 854 131 l 868 132 l 868 118 q 858 67 868 92 q 829 25 847 43 q 788 -3 811 7 q 736 -14 764 -14 q 685 -3 710 -14 q 643 25 661 7 q 615 67 625 43 q 604 118 604 92 l 604 590 q 594 615 604 606 q 569 625 585 625 q 544 615 554 625 q 535 590 535 606 l 535 153 q 539 78 535 106 q 549 36 543 51 q 563 14 554 19 l 563 0 l 326 0 l 326 590 q 317 615 326 606 q 292 625 307 625 q 267 615 276 625 q 257 590 257 606 l 257 153 q 261 78 257 106 q 271 36 265 51 q 285 14 276 19 l 285 0 l 21 0 l 21 14 q 35 36 29 19 q 44 78 40 51 q 49 153 49 106 l 49 514 q 44 588 49 561 q 35 631 40 615 q 21 653 29 647 l 21 667 l 257 694 l 257 625 q 310 685 275 661 q 389 708 344 708 z "},"n":{"ha":599,"x_min":21,"x_max":590,"o":"m 590 132 l 590 118 q 580 67 590 92 q 551 25 569 43 q 510 -3 533 7 q 458 -14 486 -14 q 408 -3 432 -14 q 365 25 383 7 q 337 67 347 43 q 326 118 326 92 l 326 590 q 317 615 326 606 q 292 625 307 625 q 267 615 276 625 q 257 590 257 606 l 257 153 q 261 78 257 106 q 271 36 265 51 q 285 14 276 19 l 285 0 l 21 0 l 21 14 q 35 36 29 19 q 44 78 40 51 q 49 153 49 106 l 49 514 q 44 588 49 561 q 35 631 40 615 q 21 653 29 647 l 21 667 l 257 694 l 257 625 q 310 685 275 661 q 389 708 344 708 q 446 697 419 708 q 492 666 472 686 q 524 619 513 646 q 535 563 535 593 l 535 139 q 541 124 535 131 q 556 118 547 118 q 570 124 564 118 q 576 139 576 131 l 590 132 z "},"o":{"ha":542,"x_min":28,"x_max":514,"o":"m 271 708 q 365 694 321 708 q 443 651 410 679 q 495 583 476 624 q 514 493 514 543 l 514 201 q 495 111 514 151 q 443 43 476 71 q 365 1 410 15 q 271 -14 321 -14 q 176 1 221 -14 q 99 43 132 15 q 47 111 65 71 q 28 201 28 151 l 28 493 q 47 583 28 543 q 99 651 65 624 q 176 694 132 679 q 271 708 221 708 m 306 660 q 296 685 306 675 q 271 694 286 694 q 246 685 256 694 q 236 660 236 675 l 236 35 q 246 10 236 19 q 271 0 256 0 q 296 10 286 0 q 306 35 306 19 l 306 660 z "},"p":{"ha":563,"x_min":21,"x_max":535,"o":"m 292 69 q 317 79 307 69 q 326 104 326 89 l 326 590 q 317 615 326 606 q 292 625 307 625 q 267 615 276 625 q 257 590 257 606 l 257 104 q 267 79 257 89 q 292 69 276 69 m 389 708 q 446 697 419 708 q 492 666 472 686 q 524 619 513 646 q 535 563 535 593 l 535 132 q 524 75 535 101 q 492 29 513 49 q 446 -2 472 10 q 389 -14 419 -14 q 310 10 344 -14 q 257 69 275 33 l 257 -69 q 261 -144 257 -117 q 271 -186 265 -171 q 285 -208 276 -203 l 285 -222 l 21 -222 l 21 -208 q 35 -186 29 -203 q 44 -144 40 -171 q 49 -69 49 -117 l 49 514 q 44 588 49 561 q 35 631 40 615 q 21 653 29 647 l 21 667 l 257 694 l 257 625 q 310 685 275 661 q 389 708 344 708 z "},"q":{"ha":563,"x_min":28,"x_max":542,"o":"m 271 69 q 296 79 286 69 q 306 104 306 89 l 306 583 l 306 594 q 271 625 301 625 q 246 615 256 625 q 236 590 236 606 l 236 104 q 246 79 236 89 q 271 69 256 69 m 174 708 q 238 694 208 708 q 288 654 267 679 l 514 694 l 514 -69 q 518 -144 514 -117 q 528 -186 522 -171 q 542 -208 533 -203 l 542 -222 l 306 -222 l 306 69 q 253 10 288 33 q 174 -14 218 -14 q 117 -2 143 -14 q 71 29 90 10 q 40 75 51 49 q 28 132 28 101 l 28 563 q 40 619 28 593 q 71 666 51 646 q 117 697 90 686 q 174 708 143 708 z "},"r":{"ha":514,"x_min":21,"x_max":507,"o":"m 507 576 q 476 503 507 533 q 403 472 446 472 q 329 503 360 472 q 299 576 299 533 l 299 604 q 292 619 299 613 q 278 625 286 625 q 263 619 269 625 q 257 604 257 613 l 257 153 q 261 78 257 106 q 271 36 265 51 q 285 14 276 19 l 285 0 l 21 0 l 21 14 q 35 36 29 19 q 44 78 40 51 q 49 153 49 106 l 49 514 q 44 588 49 561 q 35 631 40 615 q 21 653 29 647 l 21 667 l 257 694 l 257 635 q 305 688 274 667 q 375 708 336 708 q 426 698 403 708 q 468 669 450 688 q 497 628 486 651 q 507 576 507 604 z "},"s":{"ha":528,"x_min":21,"x_max":507,"o":"m 229 611 q 250 557 229 588 q 301 492 271 526 q 368 420 332 458 q 435 343 404 382 q 486 265 465 304 q 507 188 507 225 q 485 101 507 139 q 430 38 464 64 q 352 -1 396 13 q 264 -14 308 -14 q 169 1 214 -14 q 92 43 125 15 q 40 111 58 71 q 21 201 21 151 q 41 251 21 231 q 90 271 61 271 q 140 251 119 271 q 160 201 160 231 l 160 83 q 181 35 160 56 q 229 14 201 14 q 277 34 257 14 q 297 83 297 54 l 297 90 q 277 149 297 118 q 226 215 257 181 q 159 287 194 250 q 92 361 124 324 q 41 438 61 399 q 21 514 21 476 q 40 599 21 563 q 90 660 58 636 q 165 697 122 685 q 257 708 208 708 q 349 697 306 708 q 424 662 392 685 q 474 606 456 639 q 493 528 493 572 q 473 478 493 499 q 424 458 453 458 q 374 478 394 458 q 354 528 354 499 l 354 618 q 336 663 354 644 q 292 681 318 681 q 247 663 265 681 q 229 618 229 644 l 229 611 z "},"t":{"ha":326,"x_min":14,"x_max":319,"o":"m 319 139 l 319 125 q 309 71 319 96 q 280 27 299 46 q 235 -3 261 8 q 181 -14 210 -14 q 82 26 122 -14 q 42 125 42 67 l 42 542 q 38 616 42 589 q 28 658 33 643 q 14 681 22 675 l 14 694 l 250 750 l 250 694 l 306 694 l 306 667 l 250 667 l 250 146 q 258 126 250 135 q 278 118 267 118 q 297 126 289 118 q 306 146 306 135 l 319 139 z "},"u":{"ha":590,"x_min":14,"x_max":583,"o":"m 319 514 q 315 588 319 561 q 306 631 311 615 q 292 653 300 647 l 292 667 l 528 694 l 528 139 q 534 124 528 131 q 549 118 540 118 q 563 124 557 118 q 569 139 569 131 l 583 132 l 583 118 q 573 67 583 92 q 544 25 563 43 q 503 -3 526 7 q 451 -14 479 -14 q 378 9 411 -14 q 329 68 344 32 q 274 9 310 32 q 194 -14 239 -14 q 135 -2 163 -14 q 86 31 107 10 q 53 79 65 51 q 42 139 42 107 l 42 514 q 38 588 42 561 q 28 631 33 615 q 14 653 22 647 l 14 667 l 250 694 l 250 104 q 260 79 250 89 q 285 69 269 69 q 310 79 300 69 q 319 104 319 89 l 319 514 z "},"v":{"ha":569,"x_min":7,"x_max":563,"o":"m 7 694 l 285 694 l 285 681 q 269 658 275 675 q 265 616 265 643 q 275 542 265 589 l 354 165 l 433 542 q 444 616 444 589 q 439 658 443 643 q 424 681 433 675 l 424 694 l 563 694 l 563 681 q 543 658 553 675 q 524 616 533 643 q 503 542 514 589 l 389 0 l 181 0 l 67 542 q 47 616 57 589 q 26 658 36 643 q 7 681 17 675 l 7 694 z "},"w":{"ha":843,"x_min":7,"x_max":836,"o":"m 697 694 l 836 694 l 836 681 q 817 658 826 675 q 799 616 808 643 q 781 542 789 589 l 686 0 l 478 0 l 421 319 l 365 0 l 157 0 l 61 542 q 43 616 53 589 q 26 658 33 643 q 7 681 17 675 l 7 694 l 285 694 l 285 681 q 269 658 275 675 q 263 616 264 643 q 269 542 261 589 l 331 197 l 418 694 l 564 694 l 651 199 l 711 542 q 719 616 719 589 q 713 658 718 643 q 697 681 707 675 l 697 694 z "},"x":{"ha":575,"x_min":8,"x_max":567,"o":"m 300 694 l 300 681 q 285 657 289 674 q 287 615 282 642 q 311 542 292 588 l 368 414 l 403 542 q 420 617 417 590 q 421 660 424 644 q 414 681 419 675 l 414 694 l 553 694 l 553 681 q 526 660 540 675 q 501 617 515 644 q 472 542 486 590 l 410 322 l 486 153 q 522 81 507 108 q 547 38 536 53 q 567 14 558 21 l 567 0 l 289 0 l 289 14 q 304 38 300 21 q 303 81 307 53 q 278 153 299 108 l 210 304 l 158 153 q 139 78 143 106 q 136 36 135 51 q 147 14 139 19 l 147 0 l 8 0 l 8 14 q 32 36 19 19 q 58 78 43 51 q 89 153 74 106 l 171 392 l 103 542 q 68 615 83 588 q 42 657 53 642 q 22 681 31 674 l 22 694 l 300 694 z "},"y":{"ha":583,"x_min":7,"x_max":588,"o":"m 7 694 l 285 694 l 285 681 q 268 657 274 675 q 264 616 264 643 q 275 542 264 589 l 368 158 l 458 542 q 469 616 469 589 q 464 658 469 643 q 449 681 460 675 l 449 694 l 588 694 l 588 681 q 569 657 579 675 q 550 616 561 643 q 528 542 539 589 l 372 -92 q 343 -161 364 -129 q 292 -216 322 -193 q 225 -251 263 -239 q 146 -264 188 -264 q 82 -237 108 -264 q 56 -174 56 -211 q 82 -110 56 -136 q 146 -83 108 -83 q 226 -81 193 -83 q 280 -69 258 -78 q 313 -47 301 -61 q 331 -7 325 -32 l 332 0 l 194 0 l 67 542 q 45 616 56 589 q 26 658 35 643 q 7 681 15 675 l 7 694 z "},"z":{"ha":493,"x_min":8,"x_max":471,"o":"m 38 417 l 51 694 l 471 694 l 471 681 q 449 658 461 675 q 426 616 439 643 q 400 542 414 589 l 253 28 l 318 28 q 360 38 342 28 q 391 67 378 49 q 413 107 404 85 q 428 153 422 129 q 443 278 442 208 l 471 278 l 457 0 l 8 0 l 8 14 q 31 36 19 19 q 54 78 42 51 q 81 153 67 106 l 228 667 l 190 667 q 149 656 167 667 q 119 628 132 646 q 97 588 106 610 q 81 542 88 565 q 65 417 67 486 l 38 417 z "},",":{"ha":279,"x_min":28,"x_max":251,"o":"m 250 97 q 236 0 251 43 q 192 -67 224 -36 q 97 -97 160 -97 l 97 -69 q 176 -44 150 -69 q 213 14 201 -18 q 178 -6 197 1 q 139 -14 160 -14 q 60 19 93 -14 q 28 97 28 51 q 60 176 28 143 q 139 208 93 208 q 217 176 185 208 q 250 97 250 143 z "},"-":{"ha":361,"x_min":7,"x_max":354,"o":"m 7 528 l 354 528 l 354 458 l 7 458 l 7 528 z "},"+":{"ha":403,"x_min":28,"x_max":375,"o":"m 28 528 l 167 528 l 167 660 l 236 660 l 236 528 l 375 528 l 375 458 l 236 458 l 236 313 l 167 313 l 167 458 l 28 458 l 28 528 z "},"*":{"ha":724,"x_min":15,"x_max":710,"o":"m 363 1001 q 414 977 394 1001 q 426 921 433 953 l 376 688 l 507 888 q 554 919 524 915 q 608 899 585 922 q 628 846 631 876 q 597 797 625 815 l 396 668 l 631 718 q 686 706 663 725 q 710 654 710 686 q 686 602 710 622 q 631 589 663 582 l 396 640 l 597 510 q 628 461 625 492 q 608 408 631 431 q 554 388 585 385 q 507 419 524 392 l 376 619 l 426 386 q 414 331 433 354 q 363 307 394 307 q 311 331 331 307 q 299 386 292 354 l 349 621 l 218 419 q 170 388 201 392 q 117 408 139 385 q 97 461 94 431 q 128 510 100 492 l 329 640 l 94 589 q 39 602 63 582 q 15 654 15 622 q 39 706 15 686 q 94 718 63 725 l 329 668 l 128 797 q 97 846 100 815 q 117 899 94 876 q 170 919 139 922 q 218 888 201 915 l 349 688 l 299 921 q 311 977 292 953 q 363 1001 331 1001 z "},"^":{"ha":347,"x_min":14,"x_max":333,"o":"m 208 972 l 333 694 l 264 694 l 174 894 l 83 694 l 14 694 l 139 972 l 208 972 z "},"˜":{"ha":336,"x_min":7,"x_max":329,"o":"m 81 1042 q 132 1035 107 1042 q 179 1022 157 1029 q 222 1008 201 1014 q 257 1001 242 1001 q 295 1008 283 1001 q 311 1022 307 1014 q 314 1042 317 1031 l 328 1042 q 324 974 329 1003 q 303 926 317 947 q 257 904 289 904 q 206 910 231 904 q 158 924 181 917 q 115 938 135 932 q 81 944 96 944 q 42 938 54 944 q 25 925 31 932 q 22 904 21 915 l 8 904 q 14 974 7 943 q 34 1020 19 999 q 81 1042 49 1042 z "},"/":{"ha":361,"x_min":7,"x_max":354,"o":"m 285 1000 l 354 1000 l 76 -28 l 7 -28 l 285 1000 z "},"\\":{"ha":361,"x_min":7,"x_max":354,"o":"m 285 -28 l 7 1000 l 76 1000 l 354 -28 l 285 -28 z "},":":{"ha":278,"x_min":28,"x_max":250,"o":"m 250 668 q 217 590 250 622 q 139 557 185 557 q 60 590 93 557 q 28 668 28 622 q 60 747 28 714 q 139 779 93 779 q 217 747 185 779 q 250 668 250 714 m 250 265 q 217 187 250 219 q 139 154 185 154 q 60 187 93 154 q 28 265 28 219 q 60 344 28 311 q 139 376 93 376 q 217 344 185 376 q 250 265 250 311 z "},";":{"ha":279,"x_min":28,"x_max":251,"o":"m 250 515 q 217 437 250 469 q 139 404 185 404 q 60 437 93 404 q 28 515 28 469 q 60 594 28 561 q 139 626 93 626 q 217 594 185 626 q 250 515 250 561 m 250 97 q 236 0 251 43 q 192 -67 224 -36 q 97 -97 160 -97 l 97 -69 q 176 -44 150 -69 q 213 14 201 -18 q 178 -6 197 1 q 139 -14 160 -14 q 60 19 93 -14 q 28 97 28 51 q 60 176 28 143 q 139 208 93 208 q 217 176 185 208 q 250 97 250 143 z "},"<":{"ha":333,"x_min":28,"x_max":306,"o":"m 28 569 l 306 694 l 306 625 l 106 535 l 306 444 l 306 375 l 28 500 l 28 569 z "},"=":{"ha":500,"x_min":42,"x_max":458,"o":"m 42 653 l 458 653 l 458 583 l 42 583 l 42 653 m 42 486 l 458 486 l 458 417 l 42 417 l 42 486 z "},">":{"ha":333,"x_min":28,"x_max":306,"o":"m 28 375 l 28 444 l 228 535 l 28 625 l 28 694 l 306 569 l 306 500 l 28 375 z "},"!":{"ha":356,"x_min":42,"x_max":313,"o":"m 178 986 q 274 947 235 986 q 313 850 313 907 q 312 833 313 842 q 308 818 311 825 l 217 482 q 197 388 204 436 q 190 292 190 340 l 163 292 q 157 388 164 340 q 138 483 150 436 l 46 818 q 42 850 42 833 q 52 902 42 878 q 81 945 63 926 q 125 975 100 964 q 178 986 150 986 m 178 208 q 220 199 200 208 q 256 176 240 190 q 280 141 271 161 q 289 97 289 121 q 280 54 289 75 q 256 19 271 33 q 220 -5 240 4 q 178 -14 200 -14 q 99 19 132 -14 q 67 97 67 51 q 99 176 67 143 q 178 208 132 208 z "},"?":{"ha":585,"x_min":28,"x_max":557,"o":"m 29 758 q 51 853 31 811 q 108 925 72 896 q 192 970 144 954 q 293 986 239 986 q 396 970 347 986 q 480 926 444 954 q 536 860 515 899 q 557 778 557 822 q 533 689 557 726 q 474 621 510 651 q 397 561 439 590 q 320 495 356 532 q 261 410 285 458 q 238 292 238 361 l 210 292 q 220 460 210 389 q 246 583 231 531 q 279 676 261 636 q 313 751 297 715 q 338 822 328 786 q 349 903 349 858 q 333 942 349 926 q 293 958 317 958 q 253 942 269 958 q 238 903 238 926 l 238 758 q 208 684 238 714 q 133 654 178 654 q 59 684 90 654 q 29 758 28 714 m 349 104 q 314 21 349 56 q 231 -14 279 -14 q 147 21 182 -14 q 113 104 113 56 q 147 188 113 153 q 231 222 182 222 q 314 188 279 222 q 349 104 349 153 z "},"'":{"ha":196,"x_min":24,"x_max":172,"o":"m 104 625 l 90 625 l 31 901 q 44 960 24 933 q 97 986 64 986 q 151 960 131 986 q 165 901 172 933 l 104 625 z "},"\"":{"ha":375,"x_min":24,"x_max":351,"o":"m 104 625 l 90 625 l 31 901 q 44 960 24 933 q 97 986 64 986 q 151 960 131 986 q 165 901 172 933 l 104 625 m 283 625 l 269 625 l 210 901 q 223 960 203 933 q 276 986 243 986 q 331 960 310 986 q 344 901 351 933 l 283 625 z "},"#":{"ha":556,"x_min":0,"x_max":563,"o":"m 124 406 l 147 568 l 29 568 l 35 610 l 153 610 l 204 972 l 274 972 l 222 610 l 375 610 l 426 972 l 496 972 l 444 610 l 563 610 l 557 568 l 439 568 l 415 406 l 533 406 l 528 364 l 410 364 l 358 0 l 289 0 l 340 364 l 188 364 l 136 0 l 67 0 l 118 364 l 0 364 l 6 406 l 124 406 m 346 406 l 369 568 l 217 568 l 193 406 l 346 406 z "},"$":{"ha":571,"x_min":42,"x_max":528,"o":"m 229 129 q 94 199 147 144 q 42 340 42 253 q 62 390 42 369 q 111 410 82 410 q 160 390 140 410 q 181 340 181 369 l 181 222 q 201 174 181 194 q 250 153 222 153 q 298 173 278 153 q 318 222 318 193 l 318 229 q 298 288 318 257 q 247 354 278 319 q 180 426 215 389 q 113 500 144 463 q 62 576 82 538 q 42 653 42 615 q 60 738 42 701 q 111 799 79 775 q 186 835 143 824 q 278 847 229 847 l 292 847 l 292 972 l 333 972 l 333 843 q 463 787 413 832 q 514 667 514 742 q 494 617 514 638 q 444 597 474 597 q 395 617 415 597 q 375 667 375 638 l 375 757 q 357 801 375 783 q 313 819 339 819 q 268 801 286 819 q 250 757 250 783 l 250 750 q 271 696 250 726 q 322 631 292 665 q 389 559 353 597 q 456 482 425 521 q 507 403 486 443 q 528 326 528 364 q 506 240 528 278 q 451 177 485 203 q 373 138 417 151 q 285 125 329 125 l 271 125 l 271 0 l 229 0 l 229 129 z "},"@":{"ha":1056,"x_min":0,"x_max":972,"o":"m 767 757 l 729 488 q 728 320 715 383 q 793 257 742 257 q 852 277 825 257 q 900 330 879 297 q 933 403 921 363 q 944 486 944 444 q 908 664 944 581 q 810 810 872 747 q 664 908 747 872 q 486 944 581 944 q 308 908 392 944 q 163 810 225 872 q 64 664 100 747 q 28 486 28 581 q 64 308 28 392 q 163 163 100 225 q 308 64 225 100 q 486 28 392 28 q 665 64 582 28 q 810 163 747 100 l 831 143 q 676 38 764 76 q 486 0 588 0 q 297 38 386 0 q 142 142 208 76 q 38 297 76 208 q 0 486 0 386 q 38 675 0 586 q 142 830 76 764 q 297 934 208 896 q 486 972 386 972 q 675 934 586 972 q 830 830 764 896 q 934 675 896 764 q 972 486 972 586 q 960 397 972 444 q 918 309 947 350 q 839 242 889 268 q 714 215 789 215 q 583 251 635 215 q 519 372 531 288 l 515 347 q 496 290 511 317 q 458 244 481 264 q 407 213 435 225 q 349 201 379 201 q 251 244 288 201 q 224 347 215 286 l 263 625 q 282 682 267 656 q 320 728 297 708 q 371 760 343 749 q 429 771 399 771 q 491 756 464 771 q 535 717 518 742 l 767 757 m 543 646 q 540 674 546 661 q 514 688 533 688 q 488 678 499 688 q 475 653 478 668 l 428 319 q 434 294 425 304 q 458 285 443 285 q 484 294 474 285 q 497 319 494 304 l 521 486 l 521 489 l 543 646 m 517 389 l 517 389 l 515 389 l 517 389 z "},"(":{"ha":333,"x_min":28,"x_max":306,"o":"m 306 972 q 256 951 276 972 q 235 901 235 931 l 235 71 q 256 21 235 42 q 306 0 276 0 l 306 -28 q 198 -10 249 -28 q 110 40 147 7 q 50 119 72 72 q 28 222 28 165 l 28 750 q 50 853 28 807 q 110 933 72 900 q 198 983 147 965 q 306 1000 249 1000 l 306 972 z "},")":{"ha":333,"x_min":28,"x_max":306,"o":"m 28 1000 q 135 983 85 1000 q 224 933 186 965 q 283 853 261 900 q 306 750 306 807 l 306 222 q 283 119 306 165 q 224 40 261 72 q 135 -10 186 7 q 28 -28 85 -28 l 28 0 q 78 21 57 0 q 99 71 99 42 l 99 901 q 78 951 99 931 q 28 972 57 972 l 28 1000 z "},"{":{"ha":432,"x_min":42,"x_max":390,"o":"m 319 722 q 269 571 319 632 q 139 486 218 510 q 269 401 218 463 q 319 250 319 340 l 319 71 q 340 21 319 42 q 390 0 361 0 l 390 -28 q 283 -10 333 -28 q 194 40 232 7 q 135 119 157 72 q 113 222 113 165 l 113 401 q 92 451 113 431 q 42 472 71 472 l 42 500 q 92 521 71 500 q 113 571 113 542 l 113 750 q 135 853 113 807 q 194 933 157 900 q 283 983 232 965 q 390 1000 333 1000 l 390 972 q 340 951 361 972 q 319 901 319 931 l 319 722 z "},"}":{"ha":432,"x_min":42,"x_max":390,"o":"m 113 250 q 163 401 113 340 q 293 486 214 463 q 163 571 214 510 q 113 722 113 632 l 113 901 q 92 951 113 931 q 42 972 71 972 l 42 1000 q 149 983 99 1000 q 238 933 200 965 q 297 853 275 900 q 319 750 319 807 l 319 571 q 340 521 319 542 q 390 500 361 500 l 390 472 q 340 451 361 472 q 319 401 319 431 l 319 222 q 297 119 319 165 q 238 40 275 72 q 149 -10 200 7 q 42 -28 99 -28 l 42 0 q 92 21 71 0 q 113 71 113 42 l 113 250 z "},"|":{"ha":153,"x_min":42,"x_max":111,"o":"m 42 1014 l 111 1014 l 111 -42 l 42 -42 l 42 1014 z "},"[":{"ha":375,"x_min":42,"x_max":333,"o":"m 42 1000 l 333 1000 l 333 972 l 250 972 l 250 0 l 333 0 l 333 -28 l 42 -28 l 42 1000 z "},"]":{"ha":375,"x_min":42,"x_max":333,"o":"m 42 -28 l 42 0 l 125 0 l 125 972 l 42 972 l 42 1000 l 333 1000 l 333 -28 l 42 -28 z "},"%":{"ha":879,"x_min":42,"x_max":838,"o":"m 285 986 q 379 972 335 986 q 457 929 424 957 q 509 861 490 901 q 528 771 528 821 l 528 743 q 509 653 528 693 q 457 585 490 613 q 379 542 424 557 q 285 528 335 528 q 190 542 235 528 q 113 585 146 557 q 60 653 79 613 q 42 743 42 693 l 42 771 q 60 861 42 821 q 113 929 79 901 q 190 972 146 957 q 285 986 235 986 m 319 938 q 310 963 319 953 q 285 972 300 972 q 260 963 269 972 q 250 938 250 953 l 250 576 q 260 551 250 561 q 285 542 269 542 q 310 551 300 542 q 319 576 319 561 l 319 938 m 803 869 l 822 850 l 76 103 l 57 122 l 803 869 m 594 444 q 689 430 644 444 q 767 388 733 415 q 819 319 800 360 q 838 229 838 279 l 838 201 q 819 111 838 151 q 767 43 800 71 q 689 1 733 15 q 594 -14 644 -14 q 500 1 544 -14 q 422 43 456 15 q 370 111 389 71 q 351 201 351 151 l 351 229 q 370 319 351 279 q 422 388 389 360 q 500 430 456 415 q 594 444 544 444 m 629 396 q 619 421 629 411 q 594 431 610 431 q 569 421 579 431 q 560 396 560 411 l 560 35 q 569 10 560 19 q 594 0 579 0 q 619 10 610 0 q 629 35 629 19 l 629 396 z "},"€":{"ha":604,"x_min":28,"x_max":563,"o":"m 28 611 l 90 611 l 90 792 q 109 879 90 840 q 160 945 128 918 q 235 986 192 972 q 326 1000 278 1000 q 418 986 375 1000 q 493 945 461 972 q 544 879 525 918 q 563 792 563 840 q 532 718 563 749 q 458 688 501 688 q 385 718 415 688 q 354 792 354 749 l 354 958 q 346 978 354 969 q 326 986 338 986 q 307 978 315 986 q 299 958 299 969 l 299 611 l 444 611 l 444 542 l 299 542 l 299 444 l 444 444 l 444 375 l 299 375 l 299 28 q 307 8 299 17 q 326 0 315 0 q 346 8 338 0 q 354 28 354 17 l 354 194 q 385 268 354 238 q 458 299 415 299 q 532 268 501 299 q 563 194 563 238 q 544 107 563 146 q 493 41 525 68 q 418 0 461 14 q 326 -14 375 -14 q 235 0 278 -14 q 160 41 192 14 q 109 107 128 68 q 90 194 90 146 l 90 375 l 28 375 l 28 444 l 90 444 l 90 542 l 28 542 l 28 611 z "},"&":{"ha":668,"x_min":42,"x_max":626,"o":"m 375 894 q 357 940 375 921 q 313 958 339 958 q 268 940 286 958 q 250 896 250 922 l 250 590 q 267 548 250 565 q 308 528 285 531 l 313 528 l 347 528 l 361 528 l 361 575 l 569 575 l 569 528 l 626 528 l 626 500 l 569 500 l 569 153 q 574 78 569 106 q 583 36 578 51 q 597 14 589 19 l 597 0 l 361 0 l 361 86 q 301 14 342 42 q 208 -14 260 -14 q 144 -1 174 -14 q 91 35 114 13 q 55 88 68 58 q 42 153 42 118 l 42 322 l 250 322 l 250 139 q 266 99 250 115 q 306 83 282 83 q 345 99 329 83 q 361 139 361 115 l 361 500 l 347 500 l 319 500 q 271 479 292 500 q 250 431 250 458 l 250 322 l 42 322 q 86 451 42 406 q 201 515 131 497 q 86 603 131 542 q 42 744 42 665 q 63 849 42 804 q 122 925 85 894 q 209 971 160 956 q 313 986 258 986 q 411 971 363 986 q 498 925 460 956 q 560 849 536 894 q 583 743 583 803 q 553 669 583 699 q 479 639 522 639 q 405 669 435 639 q 375 743 375 699 l 375 894 z "},"‘":{"ha":196,"x_min":24,"x_max":172,"o":"m 165 711 q 151 652 172 679 q 97 625 131 625 q 44 652 64 625 q 31 711 24 679 l 90 986 l 106 986 l 165 711 z "},"’":{"ha":196,"x_min":24,"x_max":172,"o":"m 104 625 l 90 625 l 31 901 q 44 960 24 933 q 97 986 64 986 q 151 960 131 986 q 165 901 172 933 l 104 625 z "},"“":{"ha":375,"x_min":24,"x_max":351,"o":"m 104 625 l 90 625 l 31 901 q 44 960 24 933 q 97 986 64 986 q 151 960 131 986 q 165 901 172 933 l 104 625 m 283 625 l 269 625 l 210 901 q 223 960 203 933 q 276 986 243 986 q 331 960 310 986 q 344 901 351 933 l 283 625 z "},"”":{"ha":375,"x_min":24,"x_max":351,"o":"m 104 625 l 90 625 l 31 901 q 44 960 24 933 q 97 986 64 986 q 151 960 131 986 q 165 901 172 933 l 104 625 m 283 625 l 269 625 l 210 901 q 223 960 203 933 q 276 986 243 986 q 331 960 310 986 q 344 901 351 933 l 283 625 z "},"„":{"ha":375,"x_min":24,"x_max":351,"o":"m 104 -217 l 90 -217 l 31 60 q 44 118 24 92 q 97 144 64 144 q 151 118 131 144 q 165 60 172 92 l 104 -217 m 283 -217 l 269 -217 l 210 60 q 223 118 203 92 q 276 144 243 144 q 331 118 310 144 q 344 60 351 92 l 283 -217 z "},"‚":{"ha":196,"x_min":24,"x_max":172,"o":"m 104 -217 l 90 -217 l 31 60 q 44 118 24 92 q 97 144 64 144 q 151 118 131 144 q 165 60 172 92 l 104 -217 z "},"•":{"ha":472,"x_min":28,"x_max":444,"o":"m 444 500 q 428 419 444 457 q 383 353 411 381 q 317 308 356 325 q 236 292 279 292 q 155 308 193 292 q 89 353 117 325 q 44 419 61 381 q 28 500 28 457 q 44 581 28 543 q 89 647 61 619 q 155 692 117 675 q 236 708 193 708 q 317 692 279 708 q 383 647 356 675 q 428 581 411 619 q 444 500 444 543 z "},"_":{"ha":472,"x_min":28,"x_max":444,"o":"m 28 -28 l 444 -28 l 444 -97 l 28 -97 l 28 -28 z "},"–":{"ha":542,"x_min":28,"x_max":514,"o":"m 28 521 l 514 521 l 514 451 l 28 451 l 28 521 z "},"—":{"ha":889,"x_min":28,"x_max":861,"o":"m 28 521 l 861 521 l 861 451 l 28 451 l 28 521 z "},"¯":{"ha":307,"x_min":14,"x_max":292,"o":"m 14 972 l 292 972 l 292 931 l 14 931 l 14 972 z "},"¬":{"ha":403,"x_min":28,"x_max":375,"o":"m 28 569 l 375 569 l 375 403 l 306 403 l 306 500 l 28 500 l 28 569 z "},"™":{"ha":744,"x_min":14,"x_max":731,"o":"m 349 972 l 467 972 l 539 689 l 613 972 l 731 972 l 731 965 q 724 954 726 963 q 719 933 721 947 q 717 896 717 919 l 717 563 q 719 525 717 539 q 724 504 721 511 q 731 493 726 496 l 731 486 l 599 486 l 599 493 q 606 504 603 496 q 610 525 608 511 q 613 563 613 539 l 613 838 l 522 486 l 488 486 l 397 838 l 397 563 q 399 525 397 539 q 404 504 401 511 q 411 493 407 496 l 411 486 l 349 486 l 349 493 q 356 504 353 496 q 360 525 358 511 q 363 563 363 539 l 363 896 q 360 933 363 919 q 356 954 358 947 q 349 965 353 963 l 349 972 m 236 486 l 104 486 l 104 493 q 111 497 108 493 q 118 528 118 504 l 118 958 q 82 942 99 956 q 53 908 65 928 q 35 863 42 888 q 28 813 28 838 l 14 813 l 28 972 l 313 972 l 326 813 l 313 813 q 306 860 313 836 q 286 905 299 885 q 258 939 274 925 q 222 957 242 953 l 222 528 q 224 508 222 515 q 229 497 226 500 q 236 493 232 493 l 236 486 z "},"®":{"ha":1028,"x_min":28,"x_max":1000,"o":"m 28 486 q 66 675 28 586 q 170 830 104 764 q 325 934 236 896 q 514 972 414 972 q 703 934 614 972 q 858 830 792 896 q 962 675 924 764 q 1000 486 1000 586 q 962 297 1000 386 q 858 142 924 208 q 703 38 792 76 q 514 0 614 0 q 325 38 414 0 q 170 142 236 76 q 66 297 104 208 q 28 486 28 386 m 56 486 q 92 308 56 392 q 190 163 128 225 q 336 64 253 100 q 514 28 419 28 q 692 64 608 28 q 838 163 775 100 q 936 308 900 225 q 972 486 972 392 q 936 664 972 581 q 838 810 900 747 q 692 908 775 872 q 514 944 608 944 q 336 908 419 944 q 190 810 253 872 q 92 664 128 747 q 56 486 56 581 m 331 174 l 331 182 q 340 193 336 183 q 346 220 343 201 q 349 272 349 239 l 349 700 q 346 748 349 731 q 340 775 343 765 q 331 790 336 786 l 331 799 l 506 799 q 574 788 542 799 q 631 756 607 776 q 669 705 656 735 q 683 638 683 675 q 644 533 683 574 q 543 481 604 492 q 617 435 589 469 q 653 347 646 400 l 661 272 q 675 258 664 258 q 688 272 688 258 l 697 268 l 697 258 q 672 199 697 224 q 613 174 647 174 q 553 199 576 174 q 528 258 529 224 l 518 456 q 496 478 518 478 l 483 478 l 483 272 q 486 220 483 239 q 492 193 489 201 q 500 182 496 183 l 500 174 l 331 174 m 506 494 q 538 508 525 494 q 550 540 550 521 l 550 744 q 538 777 550 764 q 506 790 525 790 l 483 790 l 483 494 l 506 494 z "},"©":{"ha":1028,"x_min":28,"x_max":1000,"o":"m 514 972 q 703 934 614 972 q 858 830 792 896 q 962 675 924 764 q 1000 486 1000 586 q 962 297 1000 386 q 858 142 924 208 q 703 38 792 76 q 514 0 614 0 q 325 38 414 0 q 170 142 236 76 q 66 297 104 208 q 28 486 28 386 q 66 675 28 586 q 170 830 104 764 q 325 934 236 896 q 514 972 414 972 m 514 28 q 692 64 608 28 q 838 163 775 100 q 936 308 900 225 q 972 486 972 392 q 936 664 972 581 q 838 810 900 747 q 692 908 775 872 q 514 944 608 944 q 336 908 419 944 q 190 810 253 872 q 92 664 128 747 q 56 486 56 581 q 92 308 56 392 q 190 163 128 225 q 336 64 253 100 q 514 28 419 28 m 478 218 q 488 192 478 203 q 514 182 499 182 q 540 192 529 182 q 550 218 550 203 l 550 319 q 569 367 550 347 q 617 388 589 388 q 664 367 644 388 q 683 319 683 347 q 632 213 681 253 q 514 174 583 174 q 448 184 479 174 q 394 215 417 194 q 358 263 371 235 q 344 325 344 290 l 344 647 q 358 710 344 682 q 394 758 371 738 q 448 788 417 778 q 514 799 479 799 q 632 759 583 799 q 683 653 681 719 q 664 605 683 625 q 617 585 644 585 q 569 605 589 585 q 550 653 550 625 l 550 754 q 540 780 550 769 q 514 790 529 790 q 488 780 499 790 q 478 754 478 769 l 478 218 z "},"¢":{"ha":556,"x_min":42,"x_max":514,"o":"m 257 125 q 172 144 211 128 q 104 186 133 160 q 58 250 75 213 q 42 333 42 288 l 42 639 q 58 722 42 685 q 104 786 75 760 q 172 828 133 813 q 257 847 211 844 l 257 972 l 299 972 l 299 847 q 383 828 344 844 q 451 786 422 813 q 497 722 481 760 q 514 639 514 685 q 483 565 514 596 q 410 535 453 535 q 336 565 367 535 q 306 639 306 596 l 306 806 q 297 825 306 817 q 278 833 289 833 q 258 825 267 833 q 250 806 250 817 l 250 167 q 258 147 250 156 q 278 139 267 139 q 297 147 289 139 q 306 167 306 156 l 306 333 q 336 407 306 376 q 410 438 367 438 q 483 407 453 438 q 514 333 514 376 q 497 250 514 288 q 451 186 481 213 q 383 144 422 160 q 299 125 344 128 l 299 0 l 257 0 l 257 125 z "},"¤":{"ha":563,"x_min":28,"x_max":533,"o":"m 425 346 q 359 308 396 322 q 281 294 322 294 q 203 308 240 294 q 138 346 167 322 l 57 265 l 28 294 l 108 375 q 71 441 85 404 q 57 518 57 478 q 71 595 57 558 q 108 661 85 632 l 28 742 l 57 771 l 138 690 q 203 728 167 714 q 281 742 240 742 q 359 728 322 742 q 425 690 396 714 l 506 771 l 533 742 l 453 661 q 492 595 478 632 q 506 518 506 558 q 453 375 506 436 l 533 294 l 506 265 l 425 346 m 281 608 q 249 603 265 608 q 220 586 233 597 q 199 558 207 575 q 190 518 190 542 q 199 478 190 494 q 220 450 207 461 q 249 433 233 439 q 281 428 265 428 q 313 433 296 428 q 342 450 329 439 q 364 478 356 461 q 372 518 372 494 q 364 558 372 542 q 342 586 356 575 q 313 603 329 597 q 281 608 296 608 z "},"¥":{"ha":622,"x_min":14,"x_max":608,"o":"m 608 972 l 608 958 q 586 943 597 957 q 565 907 576 932 q 540 833 553 882 l 415 333 l 415 139 q 419 67 415 92 q 429 29 424 42 q 443 14 435 15 l 443 0 l 179 0 l 179 14 q 193 29 188 15 q 203 67 199 42 q 207 139 207 92 l 207 333 l 82 833 q 58 907 71 882 q 36 943 46 932 q 14 958 25 957 l 14 972 l 292 972 l 292 958 q 281 939 283 954 q 278 901 278 926 q 290 833 279 876 l 381 472 l 471 833 q 483 907 483 882 q 475 943 482 932 q 456 958 468 957 l 456 972 l 608 972 m 103 375 l 519 375 l 519 306 l 103 306 l 103 375 m 103 208 l 519 208 l 519 139 l 103 139 l 103 208 z "},"£":{"ha":638,"x_min":53,"x_max":596,"o":"m 57 500 l 124 500 l 124 778 q 142 865 124 826 q 193 931 161 904 q 268 972 225 958 q 360 986 311 986 q 451 972 408 986 q 526 931 494 958 q 577 865 558 904 q 596 778 596 826 q 565 704 596 735 q 492 674 535 674 q 418 704 449 674 q 388 778 388 735 l 388 944 q 379 964 388 956 q 360 972 371 972 q 340 964 349 972 q 332 944 332 956 l 332 500 l 404 500 l 404 431 l 332 431 l 332 279 q 307 163 332 217 q 238 69 282 108 l 582 69 l 582 0 l 53 0 l 53 69 q 103 90 82 69 q 124 140 124 111 l 124 431 l 57 431 l 57 500 z "},"ƒ":{"ha":804,"x_min":10,"x_max":807,"o":"m 529 547 l 721 547 l 721 519 l 528 519 l 489 0 q 461 -88 485 -50 q 401 -153 438 -126 q 319 -194 365 -181 q 224 -208 272 -208 q 134 -194 175 -208 q 65 -153 93 -181 q 23 -87 36 -126 q 17 0 10 -49 q 58 74 24 43 q 136 104 93 104 q 206 74 179 104 q 225 0 232 43 l 201 -167 q 207 -186 200 -178 q 225 -194 214 -194 q 246 -186 236 -194 q 257 -167 256 -178 l 308 519 l 199 519 l 199 547 l 310 547 l 328 792 q 356 880 332 842 q 416 945 379 918 q 499 986 453 972 q 594 1000 546 1000 q 684 986 643 1000 q 753 945 725 972 q 794 879 782 918 q 800 792 807 840 q 760 718 794 749 q 682 688 725 688 q 613 718 639 688 q 592 792 586 749 l 615 958 q 610 978 618 969 q 592 986 603 986 q 571 978 581 986 q 560 958 561 969 l 529 547 z "},"−":{"ha":542,"x_min":28,"x_max":514,"o":"m 28 493 l 514 493 l 514 424 l 28 424 l 28 493 z "},"±":{"ha":571,"x_min":43,"x_max":529,"o":"m 43 694 l 251 694 l 251 903 l 321 903 l 321 694 l 529 694 l 529 625 l 321 625 l 321 417 l 251 417 l 251 625 l 43 625 l 43 694 m 43 278 l 529 278 l 529 208 l 43 208 l 43 278 z "},"×":{"ha":478,"x_min":43,"x_max":435,"o":"m 92 682 l 239 535 l 386 682 l 435 633 l 288 486 l 435 339 l 386 290 l 239 438 l 92 290 l 43 339 l 190 486 l 43 633 l 92 682 z "},"÷":{"ha":278,"x_min":-104,"x_max":382,"o":"m 250 668 q 217 590 250 622 q 139 557 185 557 q 60 590 93 557 q 28 668 28 622 q 60 747 28 714 q 139 779 93 779 q 217 747 185 779 q 250 668 250 714 m 250 265 q 217 187 250 219 q 139 154 185 154 q 60 187 93 154 q 28 265 28 219 q 60 344 28 311 q 139 376 93 376 q 217 344 185 376 q 250 265 250 311 m -104 507 l 382 507 l 382 438 l -104 438 l -104 507 z "},"¦":{"ha":153,"x_min":42,"x_max":111,"o":"m 42 1014 l 111 1014 l 111 528 l 42 528 l 42 1014 m 42 417 l 111 417 l 111 -69 l 42 -69 l 42 417 z "},"…":{"ha":958,"x_min":42,"x_max":917,"o":"m 278 104 q 243 21 278 56 q 160 -14 208 -14 q 76 21 111 -14 q 42 104 42 56 q 76 188 42 153 q 160 222 111 222 q 243 188 208 222 q 278 104 278 153 m 597 104 q 563 21 597 56 q 479 -14 528 -14 q 396 21 431 -14 q 361 104 361 56 q 396 188 361 153 q 479 222 431 222 q 563 188 528 222 q 597 104 597 153 m 917 104 q 882 21 917 56 q 799 -14 847 -14 q 715 21 750 -14 q 681 104 681 56 q 715 188 681 153 q 799 222 750 222 q 882 188 847 222 q 917 104 917 153 z "},"·":{"ha":333,"x_min":28,"x_max":306,"o":"m 306 486 q 265 388 306 428 q 167 347 225 347 q 68 388 108 347 q 28 486 28 428 q 68 585 28 544 q 167 625 108 625 q 265 585 225 625 q 306 486 306 544 z "},"¡":{"ha":356,"x_min":42,"x_max":313,"o":"m 178 486 q 99 519 132 486 q 67 597 67 551 q 99 676 67 643 q 178 708 132 708 q 220 699 200 708 q 256 676 240 690 q 280 641 271 661 q 289 597 289 621 q 280 554 289 575 q 256 519 271 533 q 220 495 240 504 q 178 486 200 486 m 178 -292 q 125 -281 150 -292 q 81 -251 100 -269 q 52 -208 63 -232 q 42 -156 42 -183 q 46 -124 42 -139 l 138 213 q 157 306 150 258 q 163 403 164 354 l 190 403 q 197 307 190 354 q 217 213 204 260 l 310 -124 q 313 -139 313 -131 q 313 -156 313 -147 q 274 -252 313 -212 q 178 -292 235 -292 z "},"¿":{"ha":613,"x_min":42,"x_max":571,"o":"m 250 590 q 285 674 250 639 q 368 708 319 708 q 451 674 417 708 q 486 590 486 639 q 451 507 486 542 q 368 472 417 472 q 285 507 319 472 q 250 590 250 542 m 569 -64 q 547 -159 568 -117 q 490 -231 526 -201 q 407 -276 454 -260 q 306 -292 360 -292 q 203 -276 251 -292 q 119 -232 154 -260 q 63 -166 83 -204 q 42 -83 42 -128 q 65 -3 42 -39 q 124 64 89 32 q 201 128 160 96 q 278 200 243 161 q 338 288 314 239 q 361 403 361 338 l 389 403 q 378 235 389 306 q 353 111 368 164 q 319 19 338 58 q 286 -56 301 -21 q 260 -128 271 -92 q 250 -208 250 -164 q 266 -248 250 -232 q 306 -264 282 -264 q 345 -248 329 -264 q 361 -208 361 -232 l 361 -64 q 391 10 361 -19 q 465 40 421 40 q 540 10 508 40 q 569 -64 571 -19 z "},"°":{"ha":347,"x_min":28,"x_max":319,"o":"m 174 982 q 231 971 204 982 q 277 940 257 960 q 308 893 297 919 q 319 836 319 867 q 308 779 319 806 q 277 733 297 753 q 231 702 257 714 q 174 690 204 690 q 117 702 143 690 q 71 733 90 714 q 40 779 51 753 q 28 836 28 806 q 40 893 28 867 q 71 940 51 919 q 117 971 90 960 q 174 982 143 982 m 115 836 q 135 792 115 806 q 174 778 154 778 q 213 792 193 778 q 233 836 233 806 q 213 881 233 867 q 174 896 193 896 q 135 881 154 896 q 115 836 115 867 z "},"ª":{"ha":435,"x_min":28,"x_max":407,"o":"m 368 840 l 368 607 q 383 593 368 593 q 397 607 397 593 l 407 603 l 407 593 q 380 527 407 554 q 314 500 353 500 q 263 516 286 500 q 229 557 240 532 q 191 516 215 532 q 135 500 167 500 q 59 531 90 500 q 28 607 28 563 l 28 636 q 58 709 28 679 q 131 739 88 739 q 185 722 161 739 q 222 679 210 706 l 222 957 q 203 976 222 976 q 183 957 183 976 l 183 840 q 162 789 183 810 q 111 768 140 768 q 59 789 81 768 q 38 840 38 810 q 85 948 38 910 q 203 986 133 986 q 320 948 272 986 q 368 840 368 910 m 174 583 q 181 565 174 572 q 199 558 188 558 q 215 565 208 558 q 222 583 222 572 l 222 656 q 215 674 222 667 q 199 681 208 681 q 181 674 188 681 q 174 656 174 667 l 174 583 z "},"º":{"ha":313,"x_min":28,"x_max":285,"o":"m 156 988 q 247 956 208 988 q 285 872 285 925 l 285 615 q 247 532 285 563 q 156 501 208 501 q 65 532 103 501 q 28 615 28 563 l 28 872 q 65 956 28 925 q 156 988 103 988 m 183 946 q 175 965 183 957 q 156 974 167 974 q 137 965 144 974 q 129 946 129 957 l 129 542 q 137 522 129 531 q 156 514 144 514 q 175 522 167 514 q 183 542 183 531 l 183 946 z "},"¹":{"ha":193,"x_min":28,"x_max":165,"o":"m 35 493 q 42 504 39 496 q 47 524 44 511 q 49 561 49 538 l 49 863 q 45 900 49 886 q 39 921 42 914 q 28 932 33 929 l 28 939 l 144 972 l 151 972 l 151 561 q 153 524 151 538 q 158 504 156 511 q 165 493 161 496 l 165 486 l 35 486 l 35 493 z "},"²":{"ha":343,"x_min":29,"x_max":315,"o":"m 29 500 l 29 514 q 118 638 79 569 q 178 774 150 696 q 206 946 206 853 q 197 965 206 957 q 178 972 189 972 q 151 946 151 972 l 151 875 q 137 840 151 854 q 100 825 122 825 q 65 840 79 825 q 50 875 50 854 q 60 921 50 900 q 88 956 69 942 q 128 978 106 971 q 178 986 151 986 q 269 955 231 986 q 307 871 307 924 q 289 801 307 839 q 243 725 271 764 q 182 649 215 686 q 118 581 149 611 l 240 581 q 277 585 264 581 q 297 594 290 589 q 308 608 306 600 l 315 608 l 294 500 l 29 500 z "},"³":{"ha":354,"x_min":42,"x_max":313,"o":"m 176 986 q 269 957 229 986 q 308 869 308 928 q 285 798 308 829 q 225 756 261 767 q 288 708 264 742 q 313 632 313 675 q 301 581 313 606 q 272 539 290 557 q 228 510 253 521 q 176 500 204 500 q 125 510 150 500 q 82 539 100 521 q 53 581 64 557 q 42 632 42 606 q 56 667 42 653 q 92 682 71 682 q 128 667 113 682 q 143 632 143 653 l 143 547 q 153 524 143 533 q 176 514 163 514 q 201 524 192 514 q 211 547 211 533 l 211 717 q 201 740 211 731 q 176 750 192 750 l 136 750 l 136 764 l 163 764 l 178 764 q 199 773 190 764 q 207 793 207 782 l 207 942 q 198 964 207 956 q 176 972 189 972 q 155 963 164 972 q 146 942 146 954 l 146 868 q 131 832 146 847 q 96 817 117 817 q 60 832 75 817 q 44 868 44 847 q 56 919 44 897 q 85 956 67 942 q 128 978 104 971 q 176 986 151 986 z "},"⁄":{"ha":361,"x_min":7,"x_max":354,"o":"m 285 1000 l 354 1000 l 76 -28 l 7 -28 l 285 1000 z "},"¼":{"ha":794,"x_min":42,"x_max":753,"o":"m 215 1000 l 215 431 q 219 380 215 399 q 225 350 222 361 q 235 335 229 339 l 235 325 l 51 325 l 51 335 q 61 350 57 339 q 68 380 65 361 q 71 431 71 399 l 71 846 q 67 897 71 878 q 57 926 63 915 q 42 942 50 938 l 42 951 l 206 1000 l 215 1000 m 193 -28 l 471 1000 l 540 1000 l 263 -28 l 193 -28 m 724 290 l 724 106 l 753 106 l 753 86 l 724 86 l 724 78 q 727 27 724 46 q 733 -3 731 8 q 743 -18 738 -14 l 743 -28 l 560 -28 l 560 -18 q 569 -3 565 -14 q 576 27 574 8 q 579 78 579 46 l 579 86 l 347 86 l 347 106 q 425 189 390 131 q 477 327 453 238 q 501 561 501 417 q 530 629 501 601 q 599 657 558 657 q 667 629 639 657 q 694 561 694 601 q 681 448 694 500 q 644 352 667 396 q 591 274 621 308 q 531 211 561 239 q 367 106 458 146 l 579 106 l 579 242 l 724 290 z "},"½":{"ha":863,"x_min":42,"x_max":819,"o":"m 51 335 q 61 350 57 339 q 68 380 65 361 q 71 431 71 399 l 71 846 q 67 897 71 878 q 57 926 63 915 q 42 942 50 938 l 42 951 l 206 1000 l 215 1000 l 215 431 q 219 380 215 399 q 225 350 222 361 q 235 335 229 339 l 235 325 l 51 325 l 51 335 m 179 -28 l 457 1000 l 526 1000 l 249 -28 l 179 -28 m 411 -3 q 538 168 482 74 q 583 257 561 208 q 624 361 606 306 q 652 478 642 417 q 663 606 663 539 q 651 633 663 621 q 624 644 640 644 q 597 633 608 644 q 586 606 586 621 l 586 506 q 565 453 586 474 q 513 433 544 433 q 463 453 483 433 q 440 506 442 474 q 455 571 440 542 q 494 621 469 600 q 553 653 519 642 q 624 664 586 664 q 694 652 661 664 q 753 619 728 640 q 792 567 778 597 q 807 499 807 536 q 781 401 807 454 q 717 294 756 349 q 631 188 678 240 q 542 94 585 136 l 714 94 q 765 101 746 94 q 794 114 783 107 q 810 133 806 122 l 819 133 l 790 -22 l 411 -22 l 411 -3 z "},"¾":{"ha":954,"x_min":42,"x_max":911,"o":"m 353 -28 l 631 1000 l 700 1000 l 422 -28 l 353 -28 m 757 657 q 825 629 797 657 q 853 561 853 601 q 839 448 853 500 q 802 352 825 396 q 749 274 779 308 q 689 211 719 239 q 525 106 617 146 l 738 106 l 738 242 l 882 290 l 882 106 l 911 106 l 911 86 l 882 86 l 882 78 q 885 27 882 46 q 892 -3 889 8 q 901 -18 896 -14 l 901 -28 l 718 -28 l 718 -18 q 728 -3 724 -14 q 735 27 732 8 q 738 78 738 46 l 738 86 l 506 86 l 506 106 q 583 189 549 131 q 637 327 613 238 q 661 561 661 417 q 689 629 661 601 q 757 657 717 657 m 238 682 q 266 696 254 683 q 278 725 278 708 l 278 938 q 265 968 278 956 q 235 981 253 981 q 204 968 217 981 q 192 936 192 956 l 192 831 q 171 779 192 800 q 119 758 150 758 q 67 779 89 758 q 46 831 46 800 q 63 904 46 872 q 106 957 79 936 q 166 989 132 978 q 235 1000 200 1000 q 307 989 272 1000 q 367 957 342 978 q 408 905 393 936 q 422 832 422 874 q 389 731 422 775 q 304 671 356 688 q 393 603 358 651 q 428 493 428 556 q 413 420 428 454 q 371 360 397 386 q 309 320 344 335 q 235 306 274 306 q 160 320 196 306 q 99 360 125 335 q 57 420 72 386 q 42 493 42 454 q 63 546 42 525 q 114 567 83 567 q 165 546 144 567 q 186 493 186 525 l 186 374 q 201 339 186 353 q 235 325 215 325 q 269 339 254 325 q 283 374 283 353 l 283 614 q 269 648 283 633 q 235 663 254 663 l 215 663 l 176 663 l 176 682 l 215 682 l 238 682 z "},"‰":{"ha":1413,"x_min":28,"x_max":1383,"o":"m 672 1000 l 394 -28 l 325 -28 l 603 1000 l 672 1000 m 211 1000 q 282 989 249 1000 q 340 956 315 978 q 380 904 365 935 q 394 836 394 874 l 394 469 q 380 401 394 432 q 340 349 365 371 q 282 317 315 328 q 211 306 249 306 q 140 317 174 306 q 82 349 107 328 q 42 401 57 371 q 28 469 28 432 l 28 836 q 42 904 28 874 q 82 956 57 935 q 140 989 107 978 q 211 1000 174 1000 m 250 942 q 238 969 250 958 q 211 981 226 981 q 184 969 196 981 q 172 942 172 958 l 172 364 q 184 336 172 347 q 211 325 196 325 q 238 336 226 325 q 250 364 250 347 l 250 942 m 772 667 q 843 656 810 667 q 901 623 876 644 q 941 571 926 601 q 956 503 956 540 l 956 136 q 941 68 956 99 q 901 16 926 38 q 843 -17 876 -6 q 772 -28 810 -28 q 701 -17 735 -28 q 643 16 668 -6 q 603 68 618 38 q 589 136 589 99 l 589 503 q 603 571 589 540 q 643 623 618 601 q 701 656 668 644 q 772 667 735 667 m 1200 667 q 1271 656 1238 667 q 1329 623 1304 644 q 1369 571 1354 601 q 1383 503 1383 540 l 1383 136 q 1369 68 1383 99 q 1329 16 1354 38 q 1271 -17 1304 -6 q 1200 -28 1238 -28 q 1129 -17 1163 -28 q 1071 16 1096 -6 q 1031 68 1046 38 q 1017 136 1017 99 l 1017 503 q 1031 571 1017 540 q 1071 623 1046 601 q 1129 656 1096 644 q 1200 667 1163 667 m 811 608 q 799 636 811 625 q 772 647 788 647 q 745 636 757 647 q 733 608 733 625 l 733 31 q 745 3 733 14 q 772 -8 757 -8 q 799 3 788 -8 q 811 31 811 14 l 811 608 m 1239 608 q 1227 636 1239 625 q 1200 647 1215 647 q 1173 636 1185 647 q 1161 608 1161 625 l 1161 31 q 1173 3 1161 14 q 1200 -8 1185 -8 q 1227 3 1215 -8 q 1239 31 1239 14 l 1239 608 z "},"μ":{"ha":590,"x_min":14,"x_max":583,"o":"m 319 514 q 315 588 319 561 q 306 631 311 615 q 292 653 300 647 l 292 667 l 528 694 l 528 139 q 534 124 528 131 q 549 118 540 118 q 563 124 557 118 q 569 139 569 131 l 583 132 l 583 118 q 573 67 583 92 q 544 25 563 43 q 503 -3 526 7 q 451 -14 479 -14 q 378 9 411 -14 q 329 68 344 32 q 250 -4 304 18 l 250 -250 l 42 -250 l 42 514 q 38 588 42 561 q 28 631 33 615 q 14 653 22 647 l 14 667 l 250 694 l 250 104 q 260 79 250 89 q 285 69 269 69 q 310 79 300 69 q 319 104 319 89 l 319 514 z "},"¶":{"ha":569,"x_min":42,"x_max":528,"o":"m 458 944 l 389 944 l 389 -125 l 319 -125 l 319 472 q 212 490 263 472 q 124 540 161 507 q 64 619 86 572 q 42 722 42 665 q 64 826 42 779 q 124 905 86 872 q 212 955 161 938 q 319 972 263 972 l 528 972 l 528 -125 l 458 -125 l 458 944 z "},"†":{"ha":250,"x_min":-83,"x_max":264,"o":"m 90 1014 l 160 1014 l 160 528 l 264 528 l 264 458 l 160 458 l 160 -42 l 90 -42 l 90 458 l -83 458 l -83 528 l 90 528 l 90 1014 z "},"‡":{"ha":250,"x_min":-83,"x_max":333,"o":"m 90 1014 l 160 1014 l 160 653 l 333 653 l 333 583 l 160 583 l 160 486 l 333 486 l 333 417 l 160 417 l 160 -42 l 90 -42 l 90 417 l -83 417 l -83 486 l 90 486 l 90 583 l -83 583 l -83 653 l 90 653 l 90 1014 z "},"‹":{"ha":301,"x_min":28,"x_max":272,"o":"m 272 633 l 272 633 l 126 486 l 272 339 l 272 339 l 224 290 l 28 486 l 28 486 l 224 682 l 272 633 z "},"›":{"ha":301,"x_min":28,"x_max":272,"o":"m 272 486 l 272 486 l 76 290 l 28 339 l 28 339 l 175 486 l 28 633 l 28 633 l 76 682 l 272 486 z "},"«":{"ha":474,"x_min":28,"x_max":444,"o":"m 272 633 l 272 633 l 126 486 l 272 339 l 272 339 l 224 290 l 28 486 l 28 486 l 224 682 l 272 633 m 444 633 l 444 633 l 297 486 l 444 339 l 444 339 l 396 290 l 200 486 l 200 486 l 396 682 l 444 633 z "},"»":{"ha":474,"x_min":28,"x_max":444,"o":"m 444 486 l 444 486 l 249 290 l 200 339 l 200 339 l 347 486 l 200 633 l 200 633 l 249 682 l 444 486 m 272 486 l 272 486 l 76 290 l 28 339 l 28 339 l 175 486 l 28 633 l 28 633 l 76 682 l 272 486 z "},"˘":{"ha":333,"x_min":28,"x_max":306,"o":"m 306 972 q 265 874 306 914 q 167 833 225 833 q 68 874 108 833 q 28 972 28 914 l 97 972 q 118 924 97 944 q 167 903 139 903 q 216 924 196 903 q 236 972 236 944 l 306 972 z "},"˙":{"ha":333,"x_min":28,"x_max":306,"o":"m 306 833 q 265 735 306 775 q 167 694 225 694 q 68 735 108 694 q 28 833 28 775 q 68 932 28 892 q 167 972 108 972 q 265 932 225 972 q 306 833 306 892 z "},"˚":{"ha":208,"x_min":0,"x_max":208,"o":"m 104 972 q 178 942 147 972 q 208 868 208 913 q 178 794 208 825 q 104 764 147 764 q 31 794 61 764 q 0 868 0 825 q 31 942 0 913 q 104 972 61 972 m 53 868 q 67 832 53 847 q 104 817 82 817 q 142 832 126 817 q 157 868 157 847 q 142 906 157 890 q 104 921 126 921 q 67 906 82 921 q 53 868 53 890 z "},"ı":{"ha":347,"x_min":42,"x_max":306,"o":"m 42 14 q 56 36 50 19 q 65 78 61 51 q 69 153 69 106 l 69 514 q 65 588 69 561 q 56 631 61 615 q 42 653 50 647 l 42 667 l 278 694 l 278 153 q 282 78 278 106 q 292 36 286 51 q 306 14 297 19 l 306 0 l 42 0 l 42 14 z "},"~":{"ha":433,"x_min":43,"x_max":390,"o":"m 304 501 q 339 505 324 501 q 365 511 354 508 q 390 521 379 515 l 390 451 q 367 442 381 446 q 340 435 356 439 q 304 432 324 432 q 259 438 281 432 q 217 451 238 444 q 174 465 196 458 q 129 471 153 471 q 68 461 94 471 q 43 451 54 457 l 43 521 q 67 531 53 526 q 129 540 93 540 q 174 534 153 540 q 217 521 196 528 q 259 508 238 514 q 304 501 281 501 z "},"˛":{"ha":174,"x_min":0,"x_max":172,"o":"m 115 15 q 94 -12 103 3 q 79 -42 86 -25 q 72 -79 72 -60 q 108 -121 72 -121 q 135 -114 124 -121 q 157 -99 147 -107 l 172 -117 q 160 -135 168 -125 q 139 -156 151 -146 q 109 -174 126 -167 q 71 -181 92 -181 q 19 -163 39 -181 q 0 -114 0 -146 q 16 -60 0 -86 q 51 -14 32 -33 q 101 28 74 8 l 115 15 z "},"ˇ":{"ha":319,"x_min":14,"x_max":306,"o":"m 306 972 l 194 764 l 125 764 l 14 972 l 69 972 l 160 863 l 250 972 l 306 972 z "},"ˆ":{"ha":319,"x_min":14,"x_max":306,"o":"m 160 888 l 69 764 l 14 764 l 111 972 l 208 972 l 306 764 l 250 764 l 160 888 z "},"`":{"ha":194,"x_min":-14,"x_max":193,"o":"m -14 972 l 111 972 l 193 764 l 151 764 l -14 972 z "},"´":{"ha":208,"x_min":0,"x_max":207,"o":"m 0 764 l 82 972 l 207 972 l 43 764 l 0 764 z "},"¨":{"ha":369,"x_min":1,"x_max":368,"o":"m 154 910 q 132 856 154 878 q 78 833 110 833 q 24 856 46 833 q 1 910 1 878 q 24 964 1 942 q 78 986 46 986 q 132 964 110 986 q 154 910 154 942 m 368 910 q 346 856 368 878 q 292 833 324 833 q 238 856 260 833 q 215 910 215 878 q 238 964 215 942 q 292 986 260 986 q 346 964 324 986 q 368 910 368 942 z "},"˝":{"ha":208,"x_min":0,"x_max":374,"o":"m 0 764 l 82 972 l 207 972 l 43 764 l 0 764 m 167 764 l 249 972 l 374 972 l 210 764 l 167 764 z "},"¸":{"ha":211,"x_min":0,"x_max":210,"o":"m 122 46 l 103 -21 q 142 -26 122 -22 q 176 -39 161 -31 q 201 -60 192 -47 q 210 -92 210 -74 q 184 -142 210 -122 q 106 -162 158 -162 q 42 -152 68 -162 q 0 -131 17 -142 l 21 -92 q 56 -114 33 -106 q 99 -122 78 -122 q 139 -93 139 -122 q 121 -67 139 -79 q 50 -51 103 -56 l 94 46 l 122 46 z "},"ﬁ":{"ha":626,"x_min":7,"x_max":619,"o":"m 21 0 l 21 14 q 35 36 29 19 q 44 78 40 51 q 49 153 49 106 l 49 0 l 21 0 m 382 910 q 364 954 382 936 q 319 972 346 972 q 275 954 293 972 q 257 910 257 936 l 257 625 l 564 625 l 564 139 q 570 124 564 131 q 585 118 576 118 q 599 124 593 118 q 606 139 606 131 l 619 132 l 619 118 q 609 67 619 92 q 581 25 599 43 q 539 -3 563 7 q 488 -14 515 -14 q 437 -3 461 -14 q 394 25 413 7 q 366 67 376 43 q 356 118 356 92 l 356 597 l 257 597 l 257 153 q 261 78 257 106 q 271 36 265 51 q 285 14 276 19 l 285 0 l 49 0 l 49 597 l 7 597 l 7 625 l 49 625 l 49 764 q 68 856 49 815 q 122 926 88 897 q 201 971 156 956 q 299 986 247 986 q 397 971 351 986 q 476 926 442 956 q 529 856 510 897 q 549 764 549 815 q 524 705 549 729 q 465 681 500 681 q 406 705 431 681 q 382 764 382 729 l 382 910 z "},"ﬂ":{"ha":625,"x_min":7,"x_max":618,"o":"m 7 0 l 7 14 q 21 36 15 19 q 31 78 26 51 q 35 153 35 106 l 35 0 l 7 0 m 563 139 q 569 124 563 131 q 583 118 575 118 q 598 124 592 118 q 604 139 604 131 l 618 132 l 618 118 q 608 67 618 92 q 579 25 597 43 q 538 -3 561 7 q 486 -14 514 -14 q 435 -3 460 -14 q 393 25 411 7 q 365 67 375 43 q 354 118 354 92 l 354 758 l 354 917 q 338 956 354 940 q 299 972 322 972 q 259 956 275 972 q 243 917 243 940 l 243 625 l 317 625 l 317 597 l 243 597 l 243 153 q 247 78 243 106 q 257 36 251 51 q 271 14 263 19 l 271 0 l 35 0 l 35 597 l 7 597 l 7 625 l 35 625 l 35 750 q 56 848 35 804 q 112 922 76 892 q 196 969 147 953 q 299 986 244 986 q 400 970 353 986 q 483 925 447 954 q 540 853 518 896 q 563 758 561 811 l 563 139 z "},"Þ":{"ha":563,"x_min":21,"x_max":535,"o":"m 292 292 q 317 301 307 292 q 326 326 326 311 l 326 715 q 317 740 326 731 q 292 750 307 750 q 267 740 276 750 q 257 715 257 731 l 257 326 q 267 301 257 311 q 292 292 276 292 m 389 833 q 446 822 419 833 q 492 791 472 811 q 524 744 513 771 q 535 688 535 718 l 535 354 q 524 297 535 324 q 492 251 513 271 q 446 220 472 232 q 389 208 419 208 q 310 232 344 208 q 257 293 275 256 l 257 153 q 261 78 257 106 q 271 36 265 51 q 285 14 276 19 l 285 0 l 21 0 l 21 14 q 35 36 29 19 q 44 78 40 51 q 49 153 49 106 l 49 792 q 44 866 49 839 q 35 908 40 893 q 21 931 29 925 l 21 944 l 257 972 l 257 750 q 310 810 275 788 q 389 833 344 833 z "},"þ":{"ha":563,"x_min":21,"x_max":535,"o":"m 292 194 q 317 204 307 194 q 326 229 326 214 l 326 715 q 317 740 326 731 q 292 750 307 750 q 267 740 276 750 q 257 715 257 731 l 257 229 q 267 204 257 214 q 292 194 276 194 m 389 833 q 446 822 419 833 q 492 791 472 811 q 524 744 513 771 q 535 688 535 718 l 535 257 q 524 200 535 226 q 492 154 513 174 q 446 123 472 135 q 389 111 419 111 q 310 135 344 111 q 257 196 275 158 l 257 0 q 261 -74 257 -47 q 271 -117 265 -101 q 285 -139 276 -133 l 285 -153 l 21 -153 l 21 -139 q 35 -117 29 -133 q 44 -74 40 -101 q 49 0 49 -47 l 49 792 q 44 866 49 839 q 35 908 40 893 q 21 931 29 925 l 21 944 l 257 972 l 257 750 q 310 810 275 788 q 389 833 344 833 z "},"À":{"ha":622,"x_min":7,"x_max":615,"o":"m 563 153 q 580 78 571 106 q 597 36 589 51 q 615 14 606 19 l 615 0 l 338 0 l 338 14 q 354 36 347 19 q 361 78 360 51 q 354 153 363 106 l 342 226 l 142 226 l 129 153 q 124 78 122 106 q 129 36 125 51 q 146 14 136 19 l 146 0 l 7 0 l 7 14 q 25 36 17 19 q 43 78 33 51 q 60 153 53 106 l 178 819 q 187 894 186 867 q 185 936 188 921 q 175 958 182 953 l 175 972 l 418 972 l 563 153 m 333 268 l 242 792 l 150 268 l 333 268 m 124 1250 l 249 1250 l 331 1042 l 289 1042 l 124 1250 z "},"Á":{"ha":622,"x_min":7,"x_max":615,"o":"m 563 153 q 580 78 571 106 q 597 36 589 51 q 615 14 606 19 l 615 0 l 338 0 l 338 14 q 354 36 347 19 q 361 78 360 51 q 354 153 363 106 l 342 226 l 142 226 l 129 153 q 124 78 122 106 q 129 36 125 51 q 146 14 136 19 l 146 0 l 7 0 l 7 14 q 25 36 17 19 q 43 78 33 51 q 60 153 53 106 l 178 819 q 187 894 186 867 q 185 936 188 921 q 175 958 182 953 l 175 972 l 418 972 l 563 153 m 333 268 l 242 792 l 150 268 l 333 268 m 249 1042 l 331 1250 l 456 1250 l 292 1042 l 249 1042 z "},"Â":{"ha":622,"x_min":7,"x_max":615,"o":"m 563 153 q 580 78 571 106 q 597 36 589 51 q 615 14 606 19 l 615 0 l 338 0 l 338 14 q 354 36 347 19 q 361 78 360 51 q 354 153 363 106 l 342 226 l 142 226 l 129 153 q 124 78 122 106 q 129 36 125 51 q 146 14 136 19 l 146 0 l 7 0 l 7 14 q 25 36 17 19 q 43 78 33 51 q 60 153 53 106 l 178 819 q 187 894 186 867 q 185 936 188 921 q 175 958 182 953 l 175 972 l 418 972 l 563 153 m 333 268 l 242 792 l 150 268 l 333 268 m 311 1165 l 221 1042 l 165 1042 l 263 1250 l 360 1250 l 457 1042 l 401 1042 l 311 1165 z "},"Ã":{"ha":622,"x_min":7,"x_max":615,"o":"m 563 153 q 580 78 571 106 q 597 36 589 51 q 615 14 606 19 l 615 0 l 338 0 l 338 14 q 354 36 347 19 q 361 78 360 51 q 354 153 363 106 l 342 226 l 142 226 l 129 153 q 124 78 122 106 q 129 36 125 51 q 146 14 136 19 l 146 0 l 7 0 l 7 14 q 25 36 17 19 q 43 78 33 51 q 60 153 53 106 l 178 819 q 187 894 186 867 q 185 936 188 921 q 175 958 182 953 l 175 972 l 418 972 l 563 153 m 333 268 l 242 792 l 150 268 l 333 268 m 224 1208 q 275 1202 250 1208 q 322 1188 300 1196 q 365 1174 344 1181 q 400 1168 385 1168 q 438 1174 426 1168 q 454 1189 450 1181 q 457 1208 460 1197 l 471 1208 q 467 1140 472 1169 q 446 1092 460 1114 q 400 1071 432 1071 q 349 1077 374 1071 q 301 1091 324 1083 q 258 1105 278 1099 q 224 1111 239 1111 q 185 1105 197 1111 q 168 1092 174 1099 q 165 1071 164 1082 l 151 1071 q 157 1140 150 1110 q 177 1187 163 1165 q 224 1208 192 1208 z "},"Ä":{"ha":622,"x_min":7,"x_max":615,"o":"m 563 153 q 580 78 571 106 q 597 36 589 51 q 615 14 606 19 l 615 0 l 338 0 l 338 14 q 354 36 347 19 q 361 78 360 51 q 354 153 363 106 l 342 226 l 142 226 l 129 153 q 124 78 122 106 q 129 36 125 51 q 146 14 136 19 l 146 0 l 7 0 l 7 14 q 25 36 17 19 q 43 78 33 51 q 60 153 53 106 l 178 819 q 187 894 186 867 q 185 936 188 921 q 175 958 182 953 l 175 972 l 418 972 l 563 153 m 333 268 l 242 792 l 150 268 l 333 268 m 283 1132 q 261 1078 283 1100 q 207 1056 239 1056 q 153 1078 175 1056 q 131 1132 131 1100 q 153 1186 131 1164 q 207 1208 175 1208 q 261 1186 239 1208 q 283 1132 283 1164 m 497 1132 q 475 1078 497 1100 q 421 1056 453 1056 q 367 1078 389 1056 q 344 1132 344 1100 q 367 1186 344 1164 q 421 1208 389 1208 q 475 1186 453 1208 q 497 1132 497 1164 z "},"Å":{"ha":622,"x_min":7,"x_max":615,"o":"m 563 153 q 580 78 571 106 q 597 36 589 51 q 615 14 606 19 l 615 0 l 338 0 l 338 14 q 354 36 347 19 q 361 78 360 51 q 354 153 363 106 l 342 226 l 142 226 l 129 153 q 124 78 122 106 q 129 36 125 51 q 146 14 136 19 l 146 0 l 7 0 l 7 14 q 25 36 17 19 q 43 78 33 51 q 60 153 53 106 l 178 819 q 187 894 186 867 q 185 936 188 921 q 175 958 182 953 l 175 972 l 418 972 l 563 153 m 333 268 l 242 792 l 150 268 l 333 268 m 290 1167 q 364 1137 333 1167 q 394 1063 394 1107 q 364 989 394 1019 q 290 958 333 958 q 217 989 247 958 q 186 1063 186 1019 q 217 1137 186 1107 q 290 1167 247 1167 m 239 1063 q 253 1026 239 1042 q 290 1011 268 1011 q 328 1026 313 1011 q 343 1063 343 1042 q 328 1100 343 1085 q 290 1115 313 1115 q 253 1100 268 1115 q 239 1063 239 1085 z "},"Æ":{"ha":899,"x_min":7,"x_max":871,"o":"m 829 972 l 843 625 l 815 625 q 803 734 815 678 q 767 837 790 790 q 710 914 743 883 q 635 944 676 944 l 579 944 l 579 569 l 686 569 q 728 574 713 569 q 754 583 744 578 q 769 597 764 589 l 783 597 l 742 333 l 714 333 q 718 438 724 392 q 709 476 715 457 q 692 509 703 494 q 663 533 681 524 q 618 542 644 542 l 579 542 l 579 28 l 663 28 q 738 67 704 28 q 794 163 771 106 q 831 286 818 221 q 843 403 843 351 l 871 403 l 843 0 l 343 0 l 343 14 q 357 36 351 19 q 367 78 363 51 q 371 153 371 106 l 371 226 l 171 226 l 149 153 q 133 78 135 106 q 135 36 132 51 q 147 14 138 19 l 146 0 l 7 0 l 8 14 q 29 36 18 19 q 53 78 40 51 q 79 153 65 106 l 281 819 q 300 894 296 867 q 303 936 304 921 q 296 958 301 953 l 297 972 l 829 972 m 371 268 l 371 889 l 183 268 l 371 268 z "},"Ç":{"ha":597,"x_min":35,"x_max":563,"o":"m 549 917 l 521 542 l 493 542 q 476 701 493 625 q 430 833 458 776 q 367 924 401 890 q 299 958 332 958 q 259 942 275 958 q 243 903 243 926 l 243 299 q 255 242 243 269 q 286 196 267 215 q 333 165 306 176 q 389 153 360 153 q 446 165 419 153 q 492 196 472 176 q 524 242 513 215 q 535 299 535 268 l 563 292 l 563 250 q 542 148 563 196 q 485 64 521 100 q 401 7 449 28 q 299 -14 353 -14 q 196 7 244 -14 q 112 63 147 28 q 56 147 76 99 q 35 250 35 196 l 35 750 q 56 848 35 804 q 112 922 76 892 q 196 969 147 953 q 299 986 244 986 q 397 976 351 986 q 476 951 442 965 q 549 917 515 936 m 315 46 l 296 -21 q 335 -26 315 -22 q 369 -39 354 -31 q 394 -60 385 -47 q 403 -92 403 -74 q 377 -142 403 -122 q 299 -162 351 -162 q 235 -152 261 -162 q 193 -131 210 -142 l 214 -92 q 249 -114 226 -106 q 292 -122 271 -122 q 332 -93 332 -122 q 314 -67 332 -79 q 243 -51 296 -56 l 288 46 l 315 46 z "},"Ð":{"ha":618,"x_min":0,"x_max":583,"o":"m 583 250 q 561 147 583 193 q 501 67 539 100 q 413 17 464 35 q 306 0 363 0 l 42 0 l 42 14 q 56 36 50 19 q 65 78 61 51 q 69 153 69 106 l 69 819 q 65 894 69 867 q 56 936 61 921 q 42 958 50 953 l 42 972 l 306 972 q 413 955 363 972 q 501 905 464 938 q 561 826 539 872 q 583 722 583 779 l 583 250 m 306 28 q 355 48 335 28 q 375 97 375 68 l 375 875 q 355 924 375 904 q 306 944 335 944 l 278 944 l 278 28 l 306 28 m 0 542 l 347 542 l 347 472 l 0 472 l 0 542 z "},"Đ":{"ha":618,"x_min":0,"x_max":583,"o":"m 583 250 q 561 147 583 193 q 501 67 539 100 q 413 17 464 35 q 306 0 363 0 l 42 0 l 42 14 q 56 36 50 19 q 65 78 61 51 q 69 153 69 106 l 69 819 q 65 894 69 867 q 56 936 61 921 q 42 958 50 953 l 42 972 l 306 972 q 413 955 363 972 q 501 905 464 938 q 561 826 539 872 q 583 722 583 779 l 583 250 m 306 28 q 355 48 335 28 q 375 97 375 68 l 375 875 q 355 924 375 904 q 306 944 335 944 l 278 944 l 278 28 l 306 28 m 0 542 l 347 542 l 347 472 l 0 472 l 0 542 z "},"È":{"ha":597,"x_min":42,"x_max":569,"o":"m 278 944 l 278 556 l 385 556 q 427 560 411 556 q 453 569 443 564 q 468 583 463 575 l 482 583 l 440 319 l 413 319 q 417 424 422 378 q 408 462 414 443 q 390 495 401 481 q 361 519 379 510 q 317 528 343 528 l 278 528 l 278 28 l 361 28 q 436 67 403 28 q 493 163 469 106 q 529 286 517 221 q 542 403 542 351 l 569 403 l 542 0 l 42 0 l 42 14 q 56 36 50 19 q 65 78 61 51 q 69 153 69 106 l 69 819 q 65 894 69 867 q 56 936 61 921 q 42 958 50 953 l 42 972 l 528 972 l 542 625 l 514 625 q 501 734 514 678 q 465 837 489 790 q 408 914 442 883 q 333 944 375 944 l 278 944 m 125 1250 l 250 1250 l 332 1042 l 290 1042 l 125 1250 z "},"É":{"ha":597,"x_min":42,"x_max":569,"o":"m 278 944 l 278 556 l 385 556 q 427 560 411 556 q 453 569 443 564 q 468 583 463 575 l 482 583 l 440 319 l 413 319 q 417 424 422 378 q 408 462 414 443 q 390 495 401 481 q 361 519 379 510 q 317 528 343 528 l 278 528 l 278 28 l 361 28 q 436 67 403 28 q 493 163 469 106 q 529 286 517 221 q 542 403 542 351 l 569 403 l 542 0 l 42 0 l 42 14 q 56 36 50 19 q 65 78 61 51 q 69 153 69 106 l 69 819 q 65 894 69 867 q 56 936 61 921 q 42 958 50 953 l 42 972 l 528 972 l 542 625 l 514 625 q 501 734 514 678 q 465 837 489 790 q 408 914 442 883 q 333 944 375 944 l 278 944 m 236 1042 l 318 1250 l 443 1250 l 279 1042 l 236 1042 z "},"Ê":{"ha":597,"x_min":42,"x_max":569,"o":"m 278 944 l 278 556 l 385 556 q 427 560 411 556 q 453 569 443 564 q 468 583 463 575 l 482 583 l 440 319 l 413 319 q 417 424 422 378 q 408 462 414 443 q 390 495 401 481 q 361 519 379 510 q 317 528 343 528 l 278 528 l 278 28 l 361 28 q 436 67 403 28 q 493 163 469 106 q 529 286 517 221 q 542 403 542 351 l 569 403 l 542 0 l 42 0 l 42 14 q 56 36 50 19 q 65 78 61 51 q 69 153 69 106 l 69 819 q 65 894 69 867 q 56 936 61 921 q 42 958 50 953 l 42 972 l 528 972 l 542 625 l 514 625 q 501 734 514 678 q 465 837 489 790 q 408 914 442 883 q 333 944 375 944 l 278 944 m 271 1165 l 181 1042 l 125 1042 l 222 1250 l 319 1250 l 417 1042 l 361 1042 l 271 1165 z "},"Ë":{"ha":597,"x_min":42,"x_max":569,"o":"m 278 944 l 278 556 l 385 556 q 427 560 411 556 q 453 569 443 564 q 468 583 463 575 l 482 583 l 440 319 l 413 319 q 417 424 422 378 q 408 462 414 443 q 390 495 401 481 q 361 519 379 510 q 317 528 343 528 l 278 528 l 278 28 l 361 28 q 436 67 403 28 q 493 163 469 106 q 529 286 517 221 q 542 403 542 351 l 569 403 l 542 0 l 42 0 l 42 14 q 56 36 50 19 q 65 78 61 51 q 69 153 69 106 l 69 819 q 65 894 69 867 q 56 936 61 921 q 42 958 50 953 l 42 972 l 528 972 l 542 625 l 514 625 q 501 734 514 678 q 465 837 489 790 q 408 914 442 883 q 333 944 375 944 l 278 944 m 285 1188 q 263 1133 285 1156 q 208 1111 240 1111 q 154 1133 176 1111 q 132 1188 132 1156 q 154 1242 132 1219 q 208 1264 176 1264 q 263 1242 240 1264 q 285 1188 285 1219 m 499 1188 q 476 1133 499 1156 q 422 1111 454 1111 q 368 1133 390 1111 q 346 1188 346 1156 q 368 1242 346 1219 q 422 1264 390 1264 q 476 1242 454 1264 q 499 1188 499 1219 z "},"Ì":{"ha":347,"x_min":28,"x_max":306,"o":"m 42 14 q 56 36 50 19 q 65 78 61 51 q 69 153 69 106 l 69 819 q 65 894 69 867 q 56 936 61 921 q 42 958 50 953 l 42 972 l 306 972 l 306 958 q 292 936 297 953 q 282 894 286 921 q 278 819 278 867 l 278 153 q 282 78 278 106 q 292 36 286 51 q 306 14 297 19 l 306 0 l 42 0 l 42 14 m 28 1250 l 153 1250 l 235 1042 l 193 1042 l 28 1250 z "},"Í":{"ha":347,"x_min":42,"x_max":319,"o":"m 42 14 q 56 36 50 19 q 65 78 61 51 q 69 153 69 106 l 69 819 q 65 894 69 867 q 56 936 61 921 q 42 958 50 953 l 42 972 l 306 972 l 306 958 q 292 936 297 953 q 282 894 286 921 q 278 819 278 867 l 278 153 q 282 78 278 106 q 292 36 286 51 q 306 14 297 19 l 306 0 l 42 0 l 42 14 m 111 1042 l 193 1250 l 318 1250 l 154 1042 l 111 1042 z "},"Î":{"ha":347,"x_min":28,"x_max":321,"o":"m 42 14 q 56 36 50 19 q 65 78 61 51 q 69 153 69 106 l 69 819 q 65 894 69 867 q 56 936 61 921 q 42 958 50 953 l 42 972 l 306 972 l 306 958 q 292 936 297 953 q 282 894 286 921 q 278 819 278 867 l 278 153 q 282 78 278 106 q 292 36 286 51 q 306 14 297 19 l 306 0 l 42 0 l 42 14 m 174 1165 l 83 1042 l 28 1042 l 125 1250 l 222 1250 l 319 1042 l 264 1042 l 174 1165 z "},"Ï":{"ha":347,"x_min":-7,"x_max":361,"o":"m 42 14 q 56 36 50 19 q 65 78 61 51 q 69 153 69 106 l 69 819 q 65 894 69 867 q 56 936 61 921 q 42 958 50 953 l 42 972 l 306 972 l 306 958 q 292 936 297 953 q 282 894 286 921 q 278 819 278 867 l 278 153 q 282 78 278 106 q 292 36 286 51 q 306 14 297 19 l 306 0 l 42 0 l 42 14 m 146 1188 q 124 1133 146 1156 q 69 1111 101 1111 q 15 1133 38 1111 q -7 1188 -7 1156 q 15 1242 -7 1219 q 69 1264 38 1264 q 124 1242 101 1264 q 146 1188 146 1219 m 360 1188 q 338 1133 360 1156 q 283 1111 315 1111 q 229 1133 251 1111 q 207 1188 207 1156 q 229 1242 207 1219 q 283 1264 251 1264 q 338 1242 315 1264 q 360 1188 360 1219 z "},"Ł":{"ha":535,"x_min":0,"x_max":528,"o":"m 306 28 q 383 65 347 28 q 444 155 418 101 q 485 268 471 208 q 500 375 500 328 l 528 375 l 486 0 l 42 0 l 42 14 q 56 36 50 19 q 65 78 61 51 q 69 153 69 106 l 69 819 q 65 894 69 867 q 56 936 61 921 q 42 958 50 953 l 42 972 l 306 972 l 306 958 q 292 936 297 953 q 282 894 286 921 q 278 819 278 867 l 278 28 l 306 28 m 0 576 l 486 576 l 486 507 l 0 507 l 0 576 z "},"Ñ":{"ha":625,"x_min":42,"x_max":583,"o":"m 486 456 l 486 819 q 482 894 486 867 q 472 936 478 921 q 458 958 467 953 l 458 972 l 583 972 l 583 958 q 569 936 575 953 q 560 894 564 921 q 556 819 556 867 l 556 0 l 450 0 l 139 794 l 139 139 q 143 67 139 92 q 153 29 147 42 q 167 14 158 15 l 167 0 l 42 0 l 42 14 q 56 29 50 15 q 65 67 61 42 q 69 139 69 92 l 69 819 q 65 894 69 867 q 56 936 61 921 q 42 958 50 953 l 42 972 l 278 972 l 486 456 m 225 1181 q 276 1174 251 1181 q 324 1160 301 1168 q 366 1147 346 1153 q 401 1140 386 1140 q 440 1147 428 1140 q 456 1161 451 1153 q 458 1181 461 1169 l 472 1181 q 468 1113 474 1142 q 447 1065 461 1086 q 401 1043 433 1043 q 350 1049 375 1043 q 302 1063 325 1056 q 260 1077 279 1071 q 225 1083 240 1083 q 187 1077 199 1083 q 169 1064 175 1071 q 167 1043 165 1054 l 153 1043 q 158 1113 151 1082 q 178 1159 164 1138 q 225 1181 193 1181 z "},"Ò":{"ha":611,"x_min":35,"x_max":576,"o":"m 306 986 q 412 969 363 986 q 497 921 461 953 q 555 844 533 889 q 576 743 576 800 l 576 229 q 555 128 576 174 q 497 51 533 83 q 412 3 461 19 q 306 -14 363 -14 q 200 3 250 -14 q 114 51 150 19 q 56 128 78 83 q 35 229 35 174 l 35 743 q 56 844 35 800 q 114 921 78 889 q 200 969 150 953 q 306 986 250 986 m 368 896 q 350 940 368 922 q 306 958 332 958 q 261 940 279 958 q 243 896 243 922 l 243 76 q 261 32 243 50 q 306 14 279 14 q 350 33 332 14 q 368 76 368 51 l 368 896 m 201 1250 l 326 1250 l 408 1042 l 367 1042 l 201 1250 z "},"Ó":{"ha":611,"x_min":35,"x_max":576,"o":"m 306 986 q 412 969 363 986 q 497 921 461 953 q 555 844 533 889 q 576 743 576 800 l 576 229 q 555 128 576 174 q 497 51 533 83 q 412 3 461 19 q 306 -14 363 -14 q 200 3 250 -14 q 114 51 150 19 q 56 128 78 83 q 35 229 35 174 l 35 743 q 56 844 35 800 q 114 921 78 889 q 200 969 150 953 q 306 986 250 986 m 368 896 q 350 940 368 922 q 306 958 332 958 q 261 940 279 958 q 243 896 243 922 l 243 76 q 261 32 243 50 q 306 14 279 14 q 350 33 332 14 q 368 76 368 51 l 368 896 m 201 1042 l 283 1250 l 408 1250 l 244 1042 l 201 1042 z "},"Ô":{"ha":611,"x_min":35,"x_max":576,"o":"m 306 986 q 412 969 363 986 q 497 921 461 953 q 555 844 533 889 q 576 743 576 800 l 576 229 q 555 128 576 174 q 497 51 533 83 q 412 3 461 19 q 306 -14 363 -14 q 200 3 250 -14 q 114 51 150 19 q 56 128 78 83 q 35 229 35 174 l 35 743 q 56 844 35 800 q 114 921 78 889 q 200 969 150 953 q 306 986 250 986 m 368 896 q 350 940 368 922 q 306 958 332 958 q 261 940 279 958 q 243 896 243 922 l 243 76 q 261 32 243 50 q 306 14 279 14 q 350 33 332 14 q 368 76 368 51 l 368 896 m 306 1165 l 215 1042 l 160 1042 l 257 1250 l 354 1250 l 451 1042 l 396 1042 l 306 1165 z "},"Õ":{"ha":611,"x_min":35,"x_max":576,"o":"m 306 986 q 412 969 363 986 q 497 921 461 953 q 555 844 533 889 q 576 743 576 800 l 576 229 q 555 128 576 174 q 497 51 533 83 q 412 3 461 19 q 306 -14 363 -14 q 200 3 250 -14 q 114 51 150 19 q 56 128 78 83 q 35 229 35 174 l 35 743 q 56 844 35 800 q 114 921 78 889 q 200 969 150 953 q 306 986 250 986 m 368 896 q 350 940 368 922 q 306 958 332 958 q 261 940 279 958 q 243 896 243 922 l 243 76 q 261 32 243 50 q 306 14 279 14 q 350 33 332 14 q 368 76 368 51 l 368 896 m 218 1181 q 269 1174 244 1181 q 317 1160 294 1168 q 359 1147 339 1153 q 394 1140 379 1140 q 433 1147 421 1140 q 449 1161 444 1153 q 451 1181 454 1169 l 465 1181 q 461 1113 467 1142 q 440 1065 454 1086 q 394 1043 426 1043 q 343 1049 368 1043 q 295 1063 318 1056 q 253 1077 272 1071 q 218 1083 233 1083 q 180 1077 192 1083 q 163 1064 168 1071 q 160 1043 158 1054 l 146 1043 q 151 1113 144 1082 q 172 1159 157 1138 q 218 1181 186 1181 z "},"Ö":{"ha":611,"x_min":35,"x_max":576,"o":"m 306 986 q 412 969 363 986 q 497 921 461 953 q 555 844 533 889 q 576 743 576 800 l 576 229 q 555 128 576 174 q 497 51 533 83 q 412 3 461 19 q 306 -14 363 -14 q 200 3 250 -14 q 114 51 150 19 q 56 128 78 83 q 35 229 35 174 l 35 743 q 56 844 35 800 q 114 921 78 889 q 200 969 150 953 q 306 986 250 986 m 368 896 q 350 940 368 922 q 306 958 332 958 q 261 940 279 958 q 243 896 243 922 l 243 76 q 261 32 243 50 q 306 14 279 14 q 350 33 332 14 q 368 76 368 51 l 368 896 m 292 1188 q 269 1133 292 1156 q 215 1111 247 1111 q 161 1133 183 1111 q 139 1188 139 1156 q 161 1242 139 1219 q 215 1264 183 1264 q 269 1242 247 1264 q 292 1188 292 1219 m 506 1188 q 483 1133 506 1156 q 429 1111 461 1111 q 375 1133 397 1111 q 353 1188 353 1156 q 375 1242 353 1219 q 429 1264 397 1264 q 483 1242 461 1264 q 506 1188 506 1219 z "},"Ø":{"ha":626,"x_min":-56,"x_max":681,"o":"m 313 986 q 405 974 361 986 q 484 937 449 961 q 544 878 519 913 q 578 800 568 844 l 632 854 l 681 806 l 583 708 l 583 229 q 562 128 583 174 q 504 51 540 83 q 419 3 468 19 q 313 -14 369 -14 q 220 -1 264 -14 q 142 35 176 11 q 83 94 107 60 q 49 172 58 129 l -7 118 l -56 167 l 42 264 l 42 743 q 63 844 42 800 q 121 921 85 889 q 207 969 157 953 q 313 986 257 986 m 375 597 l 375 896 q 357 940 375 922 q 313 958 339 958 q 268 940 286 958 q 250 896 250 922 l 250 472 l 375 597 m 375 500 l 250 375 l 250 76 q 268 32 250 50 q 313 14 286 14 q 357 33 339 14 q 375 76 375 51 l 375 500 z "},"Œ":{"ha":901,"x_min":35,"x_max":872,"o":"m 306 986 q 412 969 363 986 q 497 921 461 953 q 555 844 533 889 q 576 743 576 800 l 576 229 q 555 128 576 174 q 497 51 533 83 q 412 3 461 19 q 306 -14 363 -14 q 200 3 250 -14 q 114 51 150 19 q 56 128 78 83 q 35 229 35 174 l 35 743 q 56 844 35 800 q 114 921 78 889 q 200 969 150 953 q 306 986 250 986 m 368 896 q 350 940 368 922 q 306 958 332 958 q 261 940 279 958 q 243 896 243 922 l 243 76 q 261 32 243 50 q 306 14 279 14 q 350 33 332 14 q 368 76 368 51 l 368 896 m 581 944 l 581 556 l 688 556 q 730 560 714 556 q 756 569 746 564 q 771 583 765 575 l 785 583 l 743 319 l 715 319 q 719 424 725 378 q 710 462 717 443 q 693 495 704 481 q 664 519 682 510 q 619 528 646 528 l 581 528 l 581 28 l 664 28 q 739 67 706 28 q 796 163 772 106 q 832 286 819 221 q 844 403 844 351 l 872 403 l 844 0 l 344 0 l 344 14 q 358 36 353 19 q 368 78 364 51 q 372 153 372 106 l 372 819 q 368 894 372 867 q 358 936 364 921 q 344 958 353 953 l 344 972 l 831 972 l 844 625 l 817 625 q 804 734 817 678 q 768 837 792 790 q 711 914 744 883 q 636 944 678 944 l 581 944 z "},"Š":{"ha":613,"x_min":0,"x_max":542,"o":"m 514 917 l 500 611 l 472 611 q 454 742 472 679 q 407 852 436 804 q 340 929 378 900 q 264 958 303 958 q 224 944 240 958 q 208 907 208 931 q 233 819 208 869 q 295 713 258 769 q 375 594 332 656 q 455 469 418 532 q 517 346 492 407 q 542 229 542 285 q 520 128 542 174 q 463 51 499 83 q 377 3 426 19 q 271 -14 328 -14 q 165 3 215 -14 q 79 51 115 19 q 22 128 43 83 q 0 229 0 174 q 31 303 0 272 q 104 333 61 333 q 178 303 147 333 q 208 229 208 272 l 208 76 q 226 32 208 50 q 271 14 244 14 q 315 33 297 14 q 333 76 333 51 q 308 187 333 129 q 247 304 283 244 q 167 425 210 364 q 87 545 124 486 q 25 660 50 604 q 0 764 0 715 q 21 866 0 824 q 77 935 42 908 q 161 974 113 961 q 264 986 210 986 q 362 976 317 986 q 442 951 407 965 q 514 917 481 936 m 453 1250 l 342 1042 l 272 1042 l 161 1250 l 217 1250 l 307 1140 l 397 1250 l 453 1250 z "},"Ù":{"ha":667,"x_min":35,"x_max":632,"o":"m 271 257 q 306 153 271 196 q 403 111 342 111 q 499 153 464 111 q 535 257 535 196 l 535 819 q 531 894 535 867 q 521 936 526 921 q 507 958 515 953 l 507 972 l 632 972 l 632 958 q 618 936 624 953 q 608 894 613 921 q 604 819 604 867 l 604 257 q 583 151 604 201 q 525 65 561 101 q 440 8 489 29 q 333 -14 390 -14 q 228 8 278 -14 q 142 65 178 29 q 84 151 106 101 q 63 257 63 201 l 63 819 q 58 894 63 867 q 49 936 54 921 q 35 958 43 953 l 35 972 l 299 972 l 299 958 q 285 936 290 953 q 275 894 279 921 q 271 819 271 867 l 271 257 m 201 1250 l 326 1250 l 408 1042 l 367 1042 l 201 1250 z "},"Ú":{"ha":667,"x_min":35,"x_max":632,"o":"m 271 257 q 306 153 271 196 q 403 111 342 111 q 499 153 464 111 q 535 257 535 196 l 535 819 q 531 894 535 867 q 521 936 526 921 q 507 958 515 953 l 507 972 l 632 972 l 632 958 q 618 936 624 953 q 608 894 613 921 q 604 819 604 867 l 604 257 q 583 151 604 201 q 525 65 561 101 q 440 8 489 29 q 333 -14 390 -14 q 228 8 278 -14 q 142 65 178 29 q 84 151 106 101 q 63 257 63 201 l 63 819 q 58 894 63 867 q 49 936 54 921 q 35 958 43 953 l 35 972 l 299 972 l 299 958 q 285 936 290 953 q 275 894 279 921 q 271 819 271 867 l 271 257 m 368 1042 l 450 1250 l 575 1250 l 411 1042 l 368 1042 z "},"Û":{"ha":667,"x_min":35,"x_max":632,"o":"m 271 257 q 306 153 271 196 q 403 111 342 111 q 499 153 464 111 q 535 257 535 196 l 535 819 q 531 894 535 867 q 521 936 526 921 q 507 958 515 953 l 507 972 l 632 972 l 632 958 q 618 936 624 953 q 608 894 613 921 q 604 819 604 867 l 604 257 q 583 151 604 201 q 525 65 561 101 q 440 8 489 29 q 333 -14 390 -14 q 228 8 278 -14 q 142 65 178 29 q 84 151 106 101 q 63 257 63 201 l 63 819 q 58 894 63 867 q 49 936 54 921 q 35 958 43 953 l 35 972 l 299 972 l 299 958 q 285 936 290 953 q 275 894 279 921 q 271 819 271 867 l 271 257 m 333 1165 l 243 1042 l 188 1042 l 285 1250 l 382 1250 l 479 1042 l 424 1042 l 333 1165 z "},"Ü":{"ha":667,"x_min":35,"x_max":632,"o":"m 271 257 q 306 153 271 196 q 403 111 342 111 q 499 153 464 111 q 535 257 535 196 l 535 819 q 531 894 535 867 q 521 936 526 921 q 507 958 515 953 l 507 972 l 632 972 l 632 958 q 618 936 624 953 q 608 894 613 921 q 604 819 604 867 l 604 257 q 583 151 604 201 q 525 65 561 101 q 440 8 489 29 q 333 -14 390 -14 q 228 8 278 -14 q 142 65 178 29 q 84 151 106 101 q 63 257 63 201 l 63 819 q 58 894 63 867 q 49 936 54 921 q 35 958 43 953 l 35 972 l 299 972 l 299 958 q 285 936 290 953 q 275 894 279 921 q 271 819 271 867 l 271 257 m 319 1188 q 297 1133 319 1156 q 243 1111 275 1111 q 189 1133 211 1111 q 167 1188 167 1156 q 189 1242 167 1219 q 243 1264 211 1264 q 297 1242 275 1264 q 319 1188 319 1219 m 533 1188 q 511 1133 533 1156 q 457 1111 489 1111 q 403 1133 425 1111 q 381 1188 381 1156 q 403 1242 381 1219 q 457 1264 425 1264 q 511 1242 489 1264 q 533 1188 533 1219 z "},"Ÿ":{"ha":622,"x_min":14,"x_max":608,"o":"m 608 972 l 608 958 q 586 943 597 957 q 565 907 576 932 q 540 833 553 882 l 415 333 l 415 139 q 419 67 415 92 q 429 29 424 42 q 443 14 435 15 l 443 0 l 179 0 l 179 14 q 193 29 188 15 q 203 67 199 42 q 207 139 207 92 l 207 333 l 82 833 q 58 907 71 882 q 36 943 46 932 q 14 958 25 957 l 14 972 l 292 972 l 292 958 q 281 939 283 954 q 278 901 278 926 q 290 833 279 876 l 381 472 l 471 833 q 483 907 483 882 q 475 943 482 932 q 456 958 468 957 l 456 972 l 608 972 m 297 1188 q 275 1133 297 1156 q 221 1111 253 1111 q 167 1133 189 1111 q 144 1188 144 1156 q 167 1242 144 1219 q 221 1264 189 1264 q 275 1242 253 1264 q 297 1188 297 1219 m 511 1188 q 489 1133 511 1156 q 435 1111 467 1111 q 381 1133 403 1111 q 358 1188 358 1156 q 381 1242 358 1219 q 435 1264 403 1264 q 489 1242 467 1264 q 511 1188 511 1219 z "},"Ý":{"ha":622,"x_min":14,"x_max":608,"o":"m 608 972 l 608 958 q 586 943 597 957 q 565 907 576 932 q 540 833 553 882 l 415 333 l 415 139 q 419 67 415 92 q 429 29 424 42 q 443 14 435 15 l 443 0 l 179 0 l 179 14 q 193 29 188 15 q 203 67 199 42 q 207 139 207 92 l 207 333 l 82 833 q 58 907 71 882 q 36 943 46 932 q 14 958 25 957 l 14 972 l 292 972 l 292 958 q 281 939 283 954 q 278 901 278 926 q 290 833 279 876 l 381 472 l 471 833 q 483 907 483 882 q 475 943 482 932 q 456 958 468 957 l 456 972 l 608 972 m 332 1042 l 414 1250 l 539 1250 l 375 1042 l 332 1042 z "},"Ž":{"ha":569,"x_min":14,"x_max":556,"o":"m 272 28 l 328 28 q 403 63 369 28 q 460 153 436 99 q 496 274 483 207 q 508 403 508 340 l 536 403 l 522 0 l 14 0 l 14 14 q 28 22 21 15 q 42 43 35 29 q 56 83 49 57 l 297 944 l 257 944 q 182 909 215 944 q 125 819 149 874 q 89 699 101 765 q 76 569 76 632 l 49 569 l 63 972 l 556 972 l 556 958 q 542 950 549 957 q 528 929 536 943 q 514 889 521 915 l 272 28 m 431 1250 l 319 1042 l 250 1042 l 139 1250 l 194 1250 l 285 1140 l 375 1250 l 431 1250 z "},"à":{"ha":576,"x_min":32,"x_max":574,"o":"m 518 500 l 518 139 q 524 124 518 131 q 539 118 531 118 q 553 124 547 118 q 560 139 560 131 l 574 132 l 574 118 q 563 67 574 92 q 535 25 553 43 q 493 -3 517 7 q 442 -14 469 -14 q 368 9 401 -14 q 319 68 335 32 q 265 9 300 32 q 185 -14 229 -14 q 125 -2 153 -14 q 76 31 97 10 q 44 79 56 51 q 32 139 32 107 l 32 208 q 44 265 32 239 q 75 312 56 292 q 121 343 94 332 q 178 354 147 354 q 257 331 222 354 q 310 271 292 307 l 310 667 q 301 686 310 678 q 282 694 293 694 q 263 686 271 694 q 254 667 254 678 l 254 500 q 224 426 254 457 q 150 396 193 396 q 76 426 107 396 q 46 500 46 457 q 65 588 46 549 q 115 653 83 626 q 190 694 147 681 q 282 708 233 708 q 374 694 331 708 q 449 653 417 681 q 499 588 481 626 q 518 500 518 549 m 240 104 q 250 79 240 89 q 275 69 260 69 q 300 79 290 69 q 310 104 310 89 l 310 236 q 300 261 310 251 q 275 271 290 271 q 250 261 260 271 q 240 236 240 251 l 240 104 m 185 972 l 310 972 l 392 764 l 350 764 l 185 972 z "},"á":{"ha":576,"x_min":32,"x_max":574,"o":"m 518 500 l 518 139 q 524 124 518 131 q 539 118 531 118 q 553 124 547 118 q 560 139 560 131 l 574 132 l 574 118 q 563 67 574 92 q 535 25 553 43 q 493 -3 517 7 q 442 -14 469 -14 q 368 9 401 -14 q 319 68 335 32 q 265 9 300 32 q 185 -14 229 -14 q 125 -2 153 -14 q 76 31 97 10 q 44 79 56 51 q 32 139 32 107 l 32 208 q 44 265 32 239 q 75 312 56 292 q 121 343 94 332 q 178 354 147 354 q 257 331 222 354 q 310 271 292 307 l 310 667 q 301 686 310 678 q 282 694 293 694 q 263 686 271 694 q 254 667 254 678 l 254 500 q 224 426 254 457 q 150 396 193 396 q 76 426 107 396 q 46 500 46 457 q 65 588 46 549 q 115 653 83 626 q 190 694 147 681 q 282 708 233 708 q 374 694 331 708 q 449 653 417 681 q 499 588 481 626 q 518 500 518 549 m 240 104 q 250 79 240 89 q 275 69 260 69 q 300 79 290 69 q 310 104 310 89 l 310 236 q 300 261 310 251 q 275 271 290 271 q 250 261 260 271 q 240 236 240 251 l 240 104 m 185 764 l 267 972 l 392 972 l 228 764 l 185 764 z "},"â":{"ha":576,"x_min":32,"x_max":574,"o":"m 518 500 l 518 139 q 524 124 518 131 q 539 118 531 118 q 553 124 547 118 q 560 139 560 131 l 574 132 l 574 118 q 563 67 574 92 q 535 25 553 43 q 493 -3 517 7 q 442 -14 469 -14 q 368 9 401 -14 q 319 68 335 32 q 265 9 300 32 q 185 -14 229 -14 q 125 -2 153 -14 q 76 31 97 10 q 44 79 56 51 q 32 139 32 107 l 32 208 q 44 265 32 239 q 75 312 56 292 q 121 343 94 332 q 178 354 147 354 q 257 331 222 354 q 310 271 292 307 l 310 667 q 301 686 310 678 q 282 694 293 694 q 263 686 271 694 q 254 667 254 678 l 254 500 q 224 426 254 457 q 150 396 193 396 q 76 426 107 396 q 46 500 46 457 q 65 588 46 549 q 115 653 83 626 q 190 694 147 681 q 282 708 233 708 q 374 694 331 708 q 449 653 417 681 q 499 588 481 626 q 518 500 518 549 m 240 104 q 250 79 240 89 q 275 69 260 69 q 300 79 290 69 q 310 104 310 89 l 310 236 q 300 261 310 251 q 275 271 290 271 q 250 261 260 271 q 240 236 240 251 l 240 104 m 289 888 l 199 764 l 143 764 l 240 972 l 338 972 l 435 764 l 379 764 l 289 888 z "},"ã":{"ha":576,"x_min":32,"x_max":574,"o":"m 518 500 l 518 139 q 524 124 518 131 q 539 118 531 118 q 553 124 547 118 q 560 139 560 131 l 574 132 l 574 118 q 563 67 574 92 q 535 25 553 43 q 493 -3 517 7 q 442 -14 469 -14 q 368 9 401 -14 q 319 68 335 32 q 265 9 300 32 q 185 -14 229 -14 q 125 -2 153 -14 q 76 31 97 10 q 44 79 56 51 q 32 139 32 107 l 32 208 q 44 265 32 239 q 75 312 56 292 q 121 343 94 332 q 178 354 147 354 q 257 331 222 354 q 310 271 292 307 l 310 667 q 301 686 310 678 q 282 694 293 694 q 263 686 271 694 q 254 667 254 678 l 254 500 q 224 426 254 457 q 150 396 193 396 q 76 426 107 396 q 46 500 46 457 q 65 588 46 549 q 115 653 83 626 q 190 694 147 681 q 282 708 233 708 q 374 694 331 708 q 449 653 417 681 q 499 588 481 626 q 518 500 518 549 m 240 104 q 250 79 240 89 q 275 69 260 69 q 300 79 290 69 q 310 104 310 89 l 310 236 q 300 261 310 251 q 275 271 290 271 q 250 261 260 271 q 240 236 240 251 l 240 104 m 201 972 q 253 966 228 972 q 300 952 278 960 q 342 938 322 944 q 378 932 363 932 q 416 938 404 932 q 432 953 428 944 q 435 972 438 961 l 449 972 q 444 904 450 933 q 424 856 438 878 q 378 835 410 835 q 326 841 351 835 q 278 855 301 847 q 236 869 256 863 q 201 875 217 875 q 163 869 175 875 q 146 856 151 863 q 143 835 142 846 l 129 835 q 135 904 128 874 q 155 951 140 929 q 201 972 169 972 z "},"ä":{"ha":576,"x_min":32,"x_max":574,"o":"m 518 500 l 518 139 q 524 124 518 131 q 539 118 531 118 q 553 124 547 118 q 560 139 560 131 l 574 132 l 574 118 q 563 67 574 92 q 535 25 553 43 q 493 -3 517 7 q 442 -14 469 -14 q 368 9 401 -14 q 319 68 335 32 q 265 9 300 32 q 185 -14 229 -14 q 125 -2 153 -14 q 76 31 97 10 q 44 79 56 51 q 32 139 32 107 l 32 208 q 44 265 32 239 q 75 312 56 292 q 121 343 94 332 q 178 354 147 354 q 257 331 222 354 q 310 271 292 307 l 310 667 q 301 686 310 678 q 282 694 293 694 q 263 686 271 694 q 254 667 254 678 l 254 500 q 224 426 254 457 q 150 396 193 396 q 76 426 107 396 q 46 500 46 457 q 65 588 46 549 q 115 653 83 626 q 190 694 147 681 q 282 708 233 708 q 374 694 331 708 q 449 653 417 681 q 499 588 481 626 q 518 500 518 549 m 240 104 q 250 79 240 89 q 275 69 260 69 q 300 79 290 69 q 310 104 310 89 l 310 236 q 300 261 310 251 q 275 271 290 271 q 250 261 260 271 q 240 236 240 251 l 240 104 m 247 910 q 225 856 247 878 q 171 833 203 833 q 117 856 139 833 q 94 910 94 878 q 117 964 94 942 q 171 986 139 986 q 225 964 203 986 q 247 910 247 942 m 461 910 q 439 856 461 878 q 385 833 417 833 q 331 856 353 833 q 308 910 308 878 q 331 964 308 942 q 385 986 353 986 q 439 964 417 986 q 461 910 461 942 z "},"å":{"ha":576,"x_min":32,"x_max":574,"o":"m 518 500 l 518 139 q 524 124 518 131 q 539 118 531 118 q 553 124 547 118 q 560 139 560 131 l 574 132 l 574 118 q 563 67 574 92 q 535 25 553 43 q 493 -3 517 7 q 442 -14 469 -14 q 368 9 401 -14 q 319 68 335 32 q 265 9 300 32 q 185 -14 229 -14 q 125 -2 153 -14 q 76 31 97 10 q 44 79 56 51 q 32 139 32 107 l 32 208 q 44 265 32 239 q 75 312 56 292 q 121 343 94 332 q 178 354 147 354 q 257 331 222 354 q 310 271 292 307 l 310 667 q 301 686 310 678 q 282 694 293 694 q 263 686 271 694 q 254 667 254 678 l 254 500 q 224 426 254 457 q 150 396 193 396 q 76 426 107 396 q 46 500 46 457 q 65 588 46 549 q 115 653 83 626 q 190 694 147 681 q 282 708 233 708 q 374 694 331 708 q 449 653 417 681 q 499 588 481 626 q 518 500 518 549 m 240 104 q 250 79 240 89 q 275 69 260 69 q 300 79 290 69 q 310 104 310 89 l 310 236 q 300 261 310 251 q 275 271 290 271 q 250 261 260 271 q 240 236 240 251 l 240 104 m 289 972 q 363 942 332 972 q 393 868 393 913 q 363 794 393 825 q 289 764 332 764 q 215 794 246 764 q 185 868 185 825 q 215 942 185 913 q 289 972 246 972 m 238 868 q 252 832 238 847 q 289 817 267 817 q 326 832 311 817 q 342 868 342 847 q 326 906 342 890 q 289 921 311 921 q 252 906 267 921 q 238 868 238 890 z "},"æ":{"ha":819,"x_min":28,"x_max":792,"o":"m 174 354 q 253 331 218 354 q 306 271 288 307 l 306 667 q 297 686 306 678 q 278 694 289 694 q 258 686 267 694 q 250 667 250 678 l 250 500 q 219 426 250 457 q 146 396 189 396 q 72 426 103 396 q 42 500 42 457 q 60 588 42 549 q 111 653 79 626 q 186 694 143 681 q 278 708 229 708 q 410 676 353 708 q 542 708 467 708 q 633 694 590 708 q 708 653 676 681 q 759 588 740 626 q 778 500 778 549 l 778 386 q 767 332 778 357 q 737 288 756 307 q 693 258 718 269 q 639 247 668 247 q 565 269 599 247 q 514 325 531 290 l 514 250 q 550 161 514 197 q 639 125 586 125 q 728 161 692 125 q 764 250 764 197 l 792 236 l 792 229 q 773 135 792 179 q 721 57 754 90 q 643 5 688 24 q 549 -14 599 -14 q 420 23 478 -14 q 332 118 363 60 q 282 24 325 61 q 181 -14 239 -14 q 121 -2 149 -14 q 72 31 93 10 q 40 79 51 51 q 28 139 28 107 l 28 208 q 40 265 28 239 q 71 312 51 292 q 117 343 90 332 q 174 354 143 354 m 514 358 q 522 339 514 347 q 542 331 531 331 q 561 339 553 331 q 569 358 569 347 l 569 667 q 561 686 569 678 q 542 694 553 694 q 522 686 531 694 q 514 667 514 678 l 514 358 m 236 104 q 246 79 236 89 q 271 69 256 69 q 296 79 286 69 q 306 104 306 89 l 306 236 q 296 261 306 251 q 271 271 286 271 q 246 261 256 271 q 236 236 236 251 l 236 104 z "},"ç":{"ha":528,"x_min":28,"x_max":514,"o":"m 514 236 l 514 229 q 495 135 514 179 q 443 57 476 90 q 365 5 410 24 q 271 -14 321 -14 q 176 5 221 -14 q 99 57 132 24 q 47 135 65 90 q 28 229 28 179 l 28 500 q 47 588 28 549 q 97 653 65 626 q 172 694 129 681 q 264 708 215 708 q 356 694 313 708 q 431 653 399 681 q 481 588 463 626 q 500 500 500 549 q 469 426 500 457 q 396 396 439 396 q 322 426 353 396 q 292 500 292 457 l 292 667 q 283 686 292 678 q 264 694 275 694 q 244 686 253 694 q 236 667 236 678 l 236 250 q 272 161 236 197 q 361 125 308 125 q 450 161 414 125 q 486 250 486 197 l 514 236 m 281 46 l 261 -21 q 300 -26 281 -22 q 335 -39 319 -31 q 359 -60 350 -47 q 368 -92 368 -74 q 342 -142 368 -122 q 264 -162 317 -162 q 201 -152 226 -162 q 158 -131 175 -142 l 179 -92 q 214 -114 192 -106 q 257 -122 236 -122 q 297 -93 297 -122 q 279 -67 297 -79 q 208 -51 261 -56 l 253 46 l 281 46 z "},"đ":{"ha":576,"x_min":28,"x_max":569,"o":"m 174 708 q 253 685 218 708 q 306 625 288 661 l 306 819 q 301 894 306 867 q 292 936 297 921 q 278 958 286 953 l 278 972 l 514 1000 l 514 139 q 520 124 514 131 q 535 118 526 118 q 549 124 543 118 q 556 139 556 131 l 569 132 l 569 118 q 559 67 569 92 q 531 25 549 43 q 489 -3 513 7 q 438 -14 465 -14 q 364 9 397 -14 q 315 68 331 32 q 260 9 296 32 q 181 -14 225 -14 q 121 -2 149 -14 q 72 31 93 10 q 40 79 51 51 q 28 139 28 107 l 28 563 q 40 619 28 593 q 71 666 51 646 q 117 697 90 686 q 174 708 143 708 m 306 590 q 296 615 306 606 q 271 625 286 625 q 246 615 256 625 q 236 590 236 606 l 236 104 q 246 79 236 89 q 271 69 256 69 q 296 79 286 69 q 306 104 306 89 l 306 590 m 269 819 l 547 819 l 547 778 l 269 778 l 269 819 z "},"è":{"ha":542,"x_min":28,"x_max":514,"o":"m 514 236 l 514 229 q 495 135 514 179 q 443 57 476 90 q 365 5 410 24 q 271 -14 321 -14 q 176 5 221 -14 q 99 57 132 24 q 47 135 65 90 q 28 229 28 179 l 28 500 q 47 588 28 549 q 97 653 65 626 q 172 694 129 681 q 264 708 215 708 q 356 694 313 708 q 431 653 399 681 q 481 588 463 626 q 500 500 500 549 l 500 386 q 489 332 500 357 q 459 288 478 307 q 415 258 440 269 q 361 247 390 247 q 287 269 321 247 q 236 325 253 290 l 236 250 q 272 161 236 197 q 361 125 308 125 q 450 161 414 125 q 486 250 486 197 l 514 236 m 236 358 q 244 339 236 347 q 264 331 253 331 q 283 339 275 331 q 292 358 292 347 l 292 667 q 283 686 292 678 q 264 694 275 694 q 244 686 253 694 q 236 667 236 678 l 236 358 m 111 972 l 236 972 l 318 764 l 276 764 l 111 972 z "},"é":{"ha":542,"x_min":28,"x_max":514,"o":"m 514 236 l 514 229 q 495 135 514 179 q 443 57 476 90 q 365 5 410 24 q 271 -14 321 -14 q 176 5 221 -14 q 99 57 132 24 q 47 135 65 90 q 28 229 28 179 l 28 500 q 47 588 28 549 q 97 653 65 626 q 172 694 129 681 q 264 708 215 708 q 356 694 313 708 q 431 653 399 681 q 481 588 463 626 q 500 500 500 549 l 500 386 q 489 332 500 357 q 459 288 478 307 q 415 258 440 269 q 361 247 390 247 q 287 269 321 247 q 236 325 253 290 l 236 250 q 272 161 236 197 q 361 125 308 125 q 450 161 414 125 q 486 250 486 197 l 514 236 m 236 358 q 244 339 236 347 q 264 331 253 331 q 283 339 275 331 q 292 358 292 347 l 292 667 q 283 686 292 678 q 264 694 275 694 q 244 686 253 694 q 236 667 236 678 l 236 358 m 250 764 l 332 972 l 457 972 l 293 764 l 250 764 z "},"ê":{"ha":542,"x_min":28,"x_max":514,"o":"m 514 236 l 514 229 q 495 135 514 179 q 443 57 476 90 q 365 5 410 24 q 271 -14 321 -14 q 176 5 221 -14 q 99 57 132 24 q 47 135 65 90 q 28 229 28 179 l 28 500 q 47 588 28 549 q 97 653 65 626 q 172 694 129 681 q 264 708 215 708 q 356 694 313 708 q 431 653 399 681 q 481 588 463 626 q 500 500 500 549 l 500 386 q 489 332 500 357 q 459 288 478 307 q 415 258 440 269 q 361 247 390 247 q 287 269 321 247 q 236 325 253 290 l 236 250 q 272 161 236 197 q 361 125 308 125 q 450 161 414 125 q 486 250 486 197 l 514 236 m 236 358 q 244 339 236 347 q 264 331 253 331 q 283 339 275 331 q 292 358 292 347 l 292 667 q 283 686 292 678 q 264 694 275 694 q 244 686 253 694 q 236 667 236 678 l 236 358 m 271 888 l 181 764 l 125 764 l 222 972 l 319 972 l 417 764 l 361 764 l 271 888 z "},"ë":{"ha":542,"x_min":28,"x_max":514,"o":"m 514 236 l 514 229 q 495 135 514 179 q 443 57 476 90 q 365 5 410 24 q 271 -14 321 -14 q 176 5 221 -14 q 99 57 132 24 q 47 135 65 90 q 28 229 28 179 l 28 500 q 47 588 28 549 q 97 653 65 626 q 172 694 129 681 q 264 708 215 708 q 356 694 313 708 q 431 653 399 681 q 481 588 463 626 q 500 500 500 549 l 500 386 q 489 332 500 357 q 459 288 478 307 q 415 258 440 269 q 361 247 390 247 q 287 269 321 247 q 236 325 253 290 l 236 250 q 272 161 236 197 q 361 125 308 125 q 450 161 414 125 q 486 250 486 197 l 514 236 m 236 358 q 244 339 236 347 q 264 331 253 331 q 283 339 275 331 q 292 358 292 347 l 292 667 q 283 686 292 678 q 264 694 275 694 q 244 686 253 694 q 236 667 236 678 l 236 358 m 229 910 q 207 856 229 878 q 153 833 185 833 q 99 856 121 833 q 76 910 76 878 q 99 964 76 942 q 153 986 121 986 q 207 964 185 986 q 229 910 229 942 m 443 910 q 421 856 443 878 q 367 833 399 833 q 313 856 335 833 q 290 910 290 878 q 313 964 290 942 q 367 986 335 986 q 421 964 399 986 q 443 910 443 942 z "},"ì":{"ha":347,"x_min":0,"x_max":306,"o":"m 42 14 q 56 36 50 19 q 65 78 61 51 q 69 153 69 106 l 69 514 q 65 588 69 561 q 56 631 61 615 q 42 653 50 647 l 42 667 l 278 694 l 278 153 q 282 78 278 106 q 292 36 286 51 q 306 14 297 19 l 306 0 l 42 0 l 42 14 m 0 972 l 125 972 l 207 764 l 165 764 l 0 972 z "},"í":{"ha":347,"x_min":42,"x_max":333,"o":"m 42 14 q 56 36 50 19 q 65 78 61 51 q 69 153 69 106 l 69 514 q 65 588 69 561 q 56 631 61 615 q 42 653 50 647 l 42 667 l 278 694 l 278 153 q 282 78 278 106 q 292 36 286 51 q 306 14 297 19 l 306 0 l 42 0 l 42 14 m 125 764 l 207 972 l 332 972 l 168 764 l 125 764 z "},"î":{"ha":347,"x_min":28,"x_max":321,"o":"m 42 14 q 56 36 50 19 q 65 78 61 51 q 69 153 69 106 l 69 514 q 65 588 69 561 q 56 631 61 615 q 42 653 50 647 l 42 667 l 278 694 l 278 153 q 282 78 278 106 q 292 36 286 51 q 306 14 297 19 l 306 0 l 42 0 l 42 14 m 174 888 l 83 764 l 28 764 l 125 972 l 222 972 l 319 764 l 264 764 l 174 888 z "},"ï":{"ha":347,"x_min":-7,"x_max":361,"o":"m 42 14 q 56 36 50 19 q 65 78 61 51 q 69 153 69 106 l 69 514 q 65 588 69 561 q 56 631 61 615 q 42 653 50 647 l 42 667 l 278 694 l 278 153 q 282 78 278 106 q 292 36 286 51 q 306 14 297 19 l 306 0 l 42 0 l 42 14 m 146 910 q 124 856 146 878 q 69 833 101 833 q 15 856 38 833 q -7 910 -7 878 q 15 964 -7 942 q 69 986 38 986 q 124 964 101 986 q 146 910 146 942 m 360 910 q 338 856 360 878 q 283 833 315 833 q 229 856 251 833 q 207 910 207 878 q 229 964 207 942 q 283 986 251 986 q 338 964 315 986 q 360 910 360 942 z "},"ł":{"ha":313,"x_min":-87,"x_max":400,"o":"m 306 132 l 306 118 q 295 67 306 92 q 267 25 285 43 q 225 -3 249 7 q 174 -14 201 -14 q 123 -3 147 -14 q 81 25 99 7 q 52 67 63 43 q 42 118 42 92 l 42 819 q 38 894 42 867 q 28 936 33 921 q 14 958 22 953 l 14 972 l 250 1000 l 250 139 q 256 124 250 131 q 271 118 263 118 q 285 124 279 118 q 292 139 292 131 l 306 132 m -87 521 l 399 521 l 399 451 l -87 451 l -87 521 z "},"ñ":{"ha":597,"x_min":21,"x_max":590,"o":"m 590 132 l 590 118 q 580 67 590 92 q 551 25 569 43 q 510 -3 533 7 q 458 -14 486 -14 q 408 -3 432 -14 q 365 25 383 7 q 337 67 347 43 q 326 118 326 92 l 326 590 q 317 615 326 606 q 292 625 307 625 q 267 615 276 625 q 257 590 257 606 l 257 153 q 261 78 257 106 q 271 36 265 51 q 285 14 276 19 l 285 0 l 21 0 l 21 14 q 35 36 29 19 q 44 78 40 51 q 49 153 49 106 l 49 514 q 44 588 49 561 q 35 631 40 615 q 21 653 29 647 l 21 667 l 257 694 l 257 625 q 310 685 275 661 q 389 708 344 708 q 446 697 419 708 q 492 666 472 686 q 524 619 513 646 q 535 563 535 593 l 535 139 q 541 124 535 131 q 556 118 547 118 q 570 124 564 118 q 576 139 576 131 l 590 132 m 211 1042 q 263 1035 238 1042 q 310 1022 288 1029 q 352 1008 332 1014 q 388 1001 372 1001 q 426 1008 414 1001 q 442 1022 438 1014 q 444 1042 447 1031 l 458 1042 q 454 974 460 1003 q 433 926 447 947 q 388 904 419 904 q 336 910 361 904 q 288 924 311 917 q 246 938 265 932 q 211 944 226 944 q 173 938 185 944 q 156 925 161 932 q 153 904 151 915 l 139 904 q 144 974 138 943 q 165 1020 150 999 q 211 1042 179 1042 z "},"ò":{"ha":542,"x_min":28,"x_max":514,"o":"m 271 708 q 365 694 321 708 q 443 651 410 679 q 495 583 476 624 q 514 493 514 543 l 514 201 q 495 111 514 151 q 443 43 476 71 q 365 1 410 15 q 271 -14 321 -14 q 176 1 221 -14 q 99 43 132 15 q 47 111 65 71 q 28 201 28 151 l 28 493 q 47 583 28 543 q 99 651 65 624 q 176 694 132 679 q 271 708 221 708 m 306 660 q 296 685 306 675 q 271 694 286 694 q 246 685 256 694 q 236 660 236 675 l 236 35 q 246 10 236 19 q 271 0 256 0 q 296 10 286 0 q 306 35 306 19 l 306 660 m 86 972 l 211 972 l 293 764 l 251 764 l 86 972 z "},"ó":{"ha":542,"x_min":28,"x_max":514,"o":"m 271 708 q 365 694 321 708 q 443 651 410 679 q 495 583 476 624 q 514 493 514 543 l 514 201 q 495 111 514 151 q 443 43 476 71 q 365 1 410 15 q 271 -14 321 -14 q 176 1 221 -14 q 99 43 132 15 q 47 111 65 71 q 28 201 28 151 l 28 493 q 47 583 28 543 q 99 651 65 624 q 176 694 132 679 q 271 708 221 708 m 306 660 q 296 685 306 675 q 271 694 286 694 q 246 685 256 694 q 236 660 236 675 l 236 35 q 246 10 236 19 q 271 0 256 0 q 296 10 286 0 q 306 35 306 19 l 306 660 m 250 764 l 332 972 l 457 972 l 293 764 l 250 764 z "},"ô":{"ha":542,"x_min":28,"x_max":514,"o":"m 271 708 q 365 694 321 708 q 443 651 410 679 q 495 583 476 624 q 514 493 514 543 l 514 201 q 495 111 514 151 q 443 43 476 71 q 365 1 410 15 q 271 -14 321 -14 q 176 1 221 -14 q 99 43 132 15 q 47 111 65 71 q 28 201 28 151 l 28 493 q 47 583 28 543 q 99 651 65 624 q 176 694 132 679 q 271 708 221 708 m 306 660 q 296 685 306 675 q 271 694 286 694 q 246 685 256 694 q 236 660 236 675 l 236 35 q 246 10 236 19 q 271 0 256 0 q 296 10 286 0 q 306 35 306 19 l 306 660 m 271 888 l 181 764 l 125 764 l 222 972 l 319 972 l 417 764 l 361 764 l 271 888 z "},"õ":{"ha":542,"x_min":28,"x_max":514,"o":"m 271 708 q 365 694 321 708 q 443 651 410 679 q 495 583 476 624 q 514 493 514 543 l 514 201 q 495 111 514 151 q 443 43 476 71 q 365 1 410 15 q 271 -14 321 -14 q 176 1 221 -14 q 99 43 132 15 q 47 111 65 71 q 28 201 28 151 l 28 493 q 47 583 28 543 q 99 651 65 624 q 176 694 132 679 q 271 708 221 708 m 306 660 q 296 685 306 675 q 271 694 286 694 q 246 685 256 694 q 236 660 236 675 l 236 35 q 246 10 236 19 q 271 0 256 0 q 296 10 286 0 q 306 35 306 19 l 306 660 m 183 1042 q 235 1035 210 1042 q 282 1022 260 1029 q 324 1008 304 1014 q 360 1001 344 1001 q 398 1008 386 1001 q 414 1022 410 1014 q 417 1042 419 1031 l 431 1042 q 426 974 432 1003 q 406 926 419 947 q 360 904 392 904 q 308 910 333 904 q 260 924 283 917 q 218 938 238 932 q 183 944 199 944 q 145 938 157 944 q 128 925 133 932 q 125 904 124 915 l 111 904 q 117 974 110 943 q 137 1020 122 999 q 183 1042 151 1042 z "},"ö":{"ha":542,"x_min":28,"x_max":514,"o":"m 271 708 q 365 694 321 708 q 443 651 410 679 q 495 583 476 624 q 514 493 514 543 l 514 201 q 495 111 514 151 q 443 43 476 71 q 365 1 410 15 q 271 -14 321 -14 q 176 1 221 -14 q 99 43 132 15 q 47 111 65 71 q 28 201 28 151 l 28 493 q 47 583 28 543 q 99 651 65 624 q 176 694 132 679 q 271 708 221 708 m 306 660 q 296 685 306 675 q 271 694 286 694 q 246 685 256 694 q 236 660 236 675 l 236 35 q 246 10 236 19 q 271 0 256 0 q 296 10 286 0 q 306 35 306 19 l 306 660 m 243 910 q 221 856 243 878 q 167 833 199 833 q 113 856 135 833 q 90 910 90 878 q 113 964 90 942 q 167 986 135 986 q 221 964 199 986 q 243 910 243 942 m 457 910 q 435 856 457 878 q 381 833 413 833 q 326 856 349 833 q 304 910 304 878 q 326 964 304 942 q 381 986 349 986 q 435 964 413 986 q 457 910 457 942 z "},"ø":{"ha":556,"x_min":-42,"x_max":597,"o":"m 278 708 q 401 682 346 708 q 489 607 457 656 l 547 667 l 597 617 l 517 538 q 521 493 521 517 l 521 201 q 502 111 521 151 q 450 43 483 71 q 372 1 417 15 q 278 -14 328 -14 q 154 13 210 -14 q 67 88 99 39 l 7 28 l -42 78 l 39 157 q 35 201 35 178 l 35 493 q 53 583 35 543 q 106 651 72 624 q 183 694 139 679 q 278 708 228 708 m 313 431 l 313 660 q 303 685 313 675 q 278 694 293 694 q 253 685 263 694 q 243 660 243 675 l 243 361 l 313 431 m 313 333 l 243 264 l 243 35 q 253 10 243 19 q 278 0 263 0 q 303 10 293 0 q 313 35 313 19 l 313 333 z "},"œ":{"ha":821,"x_min":28,"x_max":792,"o":"m 271 708 q 365 694 321 708 q 443 651 410 679 q 495 583 476 624 q 514 493 514 543 l 514 201 q 495 111 514 151 q 443 43 476 71 q 365 1 410 15 q 271 -14 321 -14 q 176 1 221 -14 q 99 43 132 15 q 47 111 65 71 q 28 201 28 151 l 28 493 q 47 583 28 543 q 99 651 65 624 q 176 694 132 679 q 271 708 221 708 m 306 660 q 296 685 306 675 q 271 694 286 694 q 246 685 256 694 q 236 660 236 675 l 236 35 q 246 10 236 19 q 271 0 256 0 q 296 10 286 0 q 306 35 306 19 l 306 660 m 792 236 l 792 229 q 773 135 792 179 q 721 57 754 90 q 643 5 688 24 q 549 -14 599 -14 q 454 5 499 -14 q 376 57 410 24 q 324 135 343 90 q 306 229 306 179 l 306 500 q 324 588 306 549 q 375 653 343 626 q 450 694 407 681 q 542 708 493 708 q 633 694 590 708 q 708 653 676 681 q 759 588 740 626 q 778 500 778 549 l 778 386 q 767 332 778 357 q 737 288 756 307 q 693 258 718 269 q 639 247 668 247 q 565 269 599 247 q 514 325 531 290 l 514 250 q 550 161 514 197 q 639 125 586 125 q 728 161 692 125 q 764 250 764 197 l 792 236 m 514 358 q 522 339 514 347 q 542 331 531 331 q 561 339 553 331 q 569 358 569 347 l 569 667 q 561 686 569 678 q 542 694 553 694 q 522 686 531 694 q 514 667 514 678 l 514 358 z "},"š":{"ha":528,"x_min":21,"x_max":507,"o":"m 229 611 q 250 557 229 588 q 301 492 271 526 q 368 420 332 458 q 435 343 404 382 q 486 265 465 304 q 507 188 507 225 q 485 101 507 139 q 430 38 464 64 q 352 -1 396 13 q 264 -14 308 -14 q 169 1 214 -14 q 92 43 125 15 q 40 111 58 71 q 21 201 21 151 q 41 251 21 231 q 90 271 61 271 q 140 251 119 271 q 160 201 160 231 l 160 83 q 181 35 160 56 q 229 14 201 14 q 277 34 257 14 q 297 83 297 54 l 297 90 q 277 149 297 118 q 226 215 257 181 q 159 287 194 250 q 92 361 124 324 q 41 438 61 399 q 21 514 21 476 q 40 599 21 563 q 90 660 58 636 q 165 697 122 685 q 257 708 208 708 q 349 697 306 708 q 424 662 392 685 q 474 606 456 639 q 493 528 493 572 q 473 478 493 499 q 424 458 453 458 q 374 478 394 458 q 354 528 354 499 l 354 618 q 336 663 354 644 q 292 681 318 681 q 247 663 265 681 q 229 618 229 644 l 229 611 m 410 972 l 299 764 l 229 764 l 118 972 l 174 972 l 264 863 l 354 972 l 410 972 z "},"ù":{"ha":590,"x_min":8,"x_max":578,"o":"m 314 514 q 310 588 314 561 q 300 631 306 615 q 286 653 294 647 l 286 667 l 522 694 l 522 139 q 528 124 522 131 q 543 118 535 118 q 558 124 551 118 q 564 139 564 131 l 578 132 l 578 118 q 567 67 578 92 q 539 25 557 43 q 497 -3 521 7 q 446 -14 474 -14 q 372 9 406 -14 q 324 68 339 32 q 269 9 304 32 q 189 -14 233 -14 q 129 -2 157 -14 q 81 31 101 10 q 48 79 60 51 q 36 139 36 107 l 36 514 q 32 588 36 561 q 22 631 28 615 q 8 653 17 647 l 8 667 l 244 694 l 244 104 q 254 79 244 89 q 279 69 264 69 q 304 79 294 69 q 314 104 314 89 l 314 514 m 122 972 l 247 972 l 329 764 l 288 764 l 122 972 z "},"ú":{"ha":590,"x_min":8,"x_max":578,"o":"m 314 514 q 310 588 314 561 q 300 631 306 615 q 286 653 294 647 l 286 667 l 522 694 l 522 139 q 528 124 522 131 q 543 118 535 118 q 558 124 551 118 q 564 139 564 131 l 578 132 l 578 118 q 567 67 578 92 q 539 25 557 43 q 497 -3 521 7 q 446 -14 474 -14 q 372 9 406 -14 q 324 68 339 32 q 269 9 304 32 q 189 -14 233 -14 q 129 -2 157 -14 q 81 31 101 10 q 48 79 60 51 q 36 139 36 107 l 36 514 q 32 588 36 561 q 22 631 28 615 q 8 653 17 647 l 8 667 l 244 694 l 244 104 q 254 79 244 89 q 279 69 264 69 q 304 79 294 69 q 314 104 314 89 l 314 514 m 247 764 l 329 972 l 454 972 l 290 764 l 247 764 z "},"û":{"ha":590,"x_min":8,"x_max":578,"o":"m 314 514 q 310 588 314 561 q 300 631 306 615 q 286 653 294 647 l 286 667 l 522 694 l 522 139 q 528 124 522 131 q 543 118 535 118 q 558 124 551 118 q 564 139 564 131 l 578 132 l 578 118 q 567 67 578 92 q 539 25 557 43 q 497 -3 521 7 q 446 -14 474 -14 q 372 9 406 -14 q 324 68 339 32 q 269 9 304 32 q 189 -14 233 -14 q 129 -2 157 -14 q 81 31 101 10 q 48 79 60 51 q 36 139 36 107 l 36 514 q 32 588 36 561 q 22 631 28 615 q 8 653 17 647 l 8 667 l 244 694 l 244 104 q 254 79 244 89 q 279 69 264 69 q 304 79 294 69 q 314 104 314 89 l 314 514 m 296 888 l 206 764 l 150 764 l 247 972 l 344 972 l 442 764 l 386 764 l 296 888 z "},"ü":{"ha":590,"x_min":7,"x_max":576,"o":"m 313 514 q 308 588 313 561 q 299 631 304 615 q 285 653 293 647 l 285 667 l 521 694 l 521 139 q 527 124 521 131 q 542 118 533 118 q 556 124 550 118 q 563 139 563 131 l 576 132 l 576 118 q 566 67 576 92 q 538 25 556 43 q 496 -3 519 7 q 444 -14 472 -14 q 371 9 404 -14 q 322 68 338 32 q 267 9 303 32 q 188 -14 232 -14 q 128 -2 156 -14 q 79 31 100 10 q 47 79 58 51 q 35 139 35 107 l 35 514 q 31 588 35 561 q 21 631 26 615 q 7 653 15 647 l 7 667 l 243 694 l 243 104 q 253 79 243 89 q 278 69 263 69 q 303 79 293 69 q 313 104 313 89 l 313 514 m 254 910 q 232 856 254 878 q 178 833 210 833 q 124 856 146 833 q 101 910 101 878 q 124 964 101 942 q 178 986 146 986 q 232 964 210 986 q 254 910 254 942 m 468 910 q 446 856 468 878 q 392 833 424 833 q 338 856 360 833 q 315 910 315 878 q 338 964 315 942 q 392 986 360 986 q 446 964 424 986 q 468 910 468 942 z "},"ý":{"ha":583,"x_min":7,"x_max":588,"o":"m 7 694 l 285 694 l 285 681 q 268 657 274 675 q 264 616 264 643 q 275 542 264 589 l 368 158 l 458 542 q 469 616 469 589 q 464 658 469 643 q 449 681 460 675 l 449 694 l 588 694 l 588 681 q 569 657 579 675 q 550 616 561 643 q 528 542 539 589 l 372 -92 q 343 -161 364 -129 q 292 -216 322 -193 q 225 -251 263 -239 q 146 -264 188 -264 q 82 -237 108 -264 q 56 -174 56 -211 q 82 -110 56 -136 q 146 -83 108 -83 q 226 -81 193 -83 q 280 -69 258 -78 q 313 -47 301 -61 q 331 -7 325 -32 l 332 0 l 194 0 l 67 542 q 45 616 56 589 q 26 658 35 643 q 7 681 15 675 l 7 694 m 313 764 l 394 972 l 519 972 l 356 764 l 313 764 z "},"ÿ":{"ha":583,"x_min":7,"x_max":588,"o":"m 7 694 l 285 694 l 285 681 q 268 657 274 675 q 264 616 264 643 q 275 542 264 589 l 368 158 l 458 542 q 469 616 469 589 q 464 658 469 643 q 449 681 460 675 l 449 694 l 588 694 l 588 681 q 569 657 579 675 q 550 616 561 643 q 528 542 539 589 l 372 -92 q 343 -161 364 -129 q 292 -216 322 -193 q 225 -251 263 -239 q 146 -264 188 -264 q 82 -237 108 -264 q 56 -174 56 -211 q 82 -110 56 -136 q 146 -83 108 -83 q 226 -81 193 -83 q 280 -69 258 -78 q 313 -47 301 -61 q 331 -7 325 -32 l 332 0 l 194 0 l 67 542 q 45 616 56 589 q 26 658 35 643 q 7 681 15 675 l 7 694 m 278 910 q 256 856 278 878 q 201 833 233 833 q 147 856 169 833 q 125 910 125 878 q 147 964 125 942 q 201 986 169 986 q 256 964 233 986 q 278 910 278 942 m 492 910 q 469 856 492 878 q 415 833 447 833 q 361 856 383 833 q 339 910 339 878 q 361 964 339 942 q 415 986 383 986 q 469 964 447 986 q 492 910 492 942 z "},"ž":{"ha":493,"x_min":8,"x_max":471,"o":"m 38 417 l 51 694 l 471 694 l 471 681 q 449 658 461 675 q 426 616 439 643 q 400 542 414 589 l 253 28 l 318 28 q 360 38 342 28 q 391 67 378 49 q 413 107 404 85 q 428 153 422 129 q 443 278 442 208 l 471 278 l 457 0 l 8 0 l 8 14 q 31 36 19 19 q 54 78 42 51 q 81 153 67 106 l 228 667 l 190 667 q 149 656 167 667 q 119 628 132 646 q 97 588 106 610 q 81 542 88 565 q 65 417 67 486 l 38 417 m 393 972 l 282 764 l 213 764 l 101 972 l 157 972 l 247 863 l 338 972 l 393 972 z "},"§":{"ha":756,"x_min":42,"x_max":713,"o":"m 250 569 q 272 514 250 544 q 324 449 293 483 q 392 376 356 414 q 460 297 429 338 q 491 322 479 304 q 503 361 503 339 l 503 368 q 483 427 503 396 q 432 493 463 458 q 365 564 401 528 q 299 638 329 600 q 264 617 278 633 q 250 576 250 600 l 250 569 m 528 146 q 506 60 528 97 q 451 -3 485 22 q 373 -42 417 -29 q 285 -56 329 -56 q 190 -41 235 -56 q 113 1 146 -26 q 60 69 79 29 q 42 160 42 110 q 62 209 42 189 q 111 229 82 229 q 160 209 140 229 q 181 160 181 189 l 181 42 q 201 -7 181 14 q 250 -28 222 -28 q 298 -8 278 -28 q 318 42 318 13 l 318 49 q 298 108 318 76 q 247 174 278 139 q 180 245 215 208 q 113 319 144 282 q 62 396 82 357 q 42 472 42 435 q 60 558 42 521 q 111 619 79 594 q 185 655 143 643 q 276 667 228 667 q 240 729 254 699 q 226 792 226 760 q 245 877 226 840 q 296 938 264 914 q 371 974 328 963 q 463 986 414 986 q 554 974 511 986 q 629 940 597 963 q 680 883 661 917 q 699 806 699 850 q 678 756 699 776 q 629 736 658 736 q 580 756 600 736 q 560 806 560 776 l 560 896 q 542 940 560 922 q 497 958 524 958 q 453 940 471 958 q 435 896 435 922 l 435 889 q 456 835 435 865 q 507 770 476 804 q 574 698 538 736 q 640 621 610 660 q 692 543 671 582 q 713 465 713 504 q 693 382 713 418 q 641 320 674 346 q 567 281 608 294 q 483 264 526 267 q 515 205 503 235 q 528 146 528 175 z "},"ð":{"ha":625,"x_min":42,"x_max":625,"o":"m 313 -14 q 207 3 257 -14 q 121 51 157 19 q 63 128 85 83 q 42 229 42 174 l 42 381 q 56 448 42 417 q 93 503 69 479 q 148 540 117 526 q 215 554 179 554 q 313 525 269 554 q 375 449 356 496 l 375 597 l 286 597 l 286 667 l 375 667 l 375 903 q 359 942 375 926 q 319 958 343 958 q 280 942 296 958 q 264 903 264 926 l 264 750 q 234 676 264 706 q 160 646 204 646 q 86 676 117 646 q 56 750 56 706 q 76 848 56 804 q 133 922 97 892 q 217 969 168 953 q 319 986 265 986 q 422 969 374 986 q 506 922 471 953 q 563 848 542 892 q 583 750 583 804 l 583 667 l 625 667 l 625 597 l 583 597 l 583 229 q 562 128 583 174 q 504 51 540 83 q 419 3 468 19 q 313 -14 369 -14 m 250 76 q 268 32 250 50 q 313 14 286 14 q 357 32 339 14 q 375 76 375 50 l 375 381 q 357 425 375 407 q 313 443 339 443 q 268 425 286 443 q 250 381 250 407 l 250 76 z "}}}
